<svg width="110" height="47" viewBox="0 0 110 47" fill="none" xmlns="http://www.w3.org/2000/svg">
<path d="M91.1483 40.5264H18.7612C11.595 40.5264 5.78955 33.7895 5.78955 25.4738V20.8422C5.78955 12.5264 11.595 5.78955 18.7612 5.78955H91.239C98.4051 5.78955 104.211 12.5264 104.211 20.8422V25.4738C104.211 33.7895 98.4051 40.5264 91.1483 40.5264Z" fill="#E53014" fill-opacity="0.8"/>
<path d="M14.6791 19.9999C13.0464 23.263 14.1349 28.1052 15.8584 31.0525C16.7655 32.5262 17.6726 33.8946 18.8518 33.8946H18.9425C19.4868 33.8946 19.9404 33.6841 20.3032 33.4736C20.7568 33.263 21.2103 33.0525 21.936 33.0525C22.6617 33.0525 23.1152 33.263 23.4781 33.4736C23.9316 33.6841 24.2945 33.8946 25.0202 33.8946C26.3808 33.8946 27.1972 32.4209 28.0136 31.1578C28.83 29.7894 29.1928 28.5262 29.2836 28.1052C29.2836 27.9999 29.2836 27.8946 29.1928 27.8946C28.9207 27.7894 26.8344 26.7367 26.8344 23.6841C26.8344 21.263 28.4672 19.9999 28.7393 19.7894L28.83 19.6841V19.5788C27.7415 17.6841 26.018 17.3683 25.2923 17.3683C25.2016 17.3683 25.1109 17.3683 25.0202 17.3683C24.2038 17.3683 23.4781 17.6841 22.8431 17.9999C22.3896 18.2104 22.0267 18.3157 21.7546 18.3157C21.4824 18.3157 21.1196 18.1052 20.666 17.8946C20.1218 17.5788 19.3961 17.3683 18.7611 17.3683C18.7611 17.3683 18.7611 17.3683 18.6704 17.3683C17.0376 17.263 15.4955 18.3157 14.6791 19.9999Z" fill="white"/>
<path d="M25.2922 11.8948C24.2944 11.8948 23.1152 12.6316 22.4802 13.579C21.8452 14.4211 21.301 15.6842 21.4824 17.0527C21.4824 17.1579 21.5731 17.1579 21.6638 17.1579C21.7545 17.1579 21.7545 17.1579 21.8452 17.1579C22.8431 17.1579 23.8409 16.5264 24.5666 15.579C25.2922 14.5264 25.6551 13.1579 25.5644 12C25.4737 12 25.3829 11.8948 25.2922 11.8948Z" fill="white"/>
<path d="M36.5403 13.6843H38.3545C38.808 13.6843 39.2616 13.7896 39.6244 14.0001C39.9873 14.2106 40.2594 14.5264 40.5315 14.9475C40.713 15.3685 40.8037 15.7896 40.8037 16.3159C40.8037 16.8422 40.713 17.2633 40.5315 17.6843C40.3501 18.1054 39.9873 18.4212 39.6244 18.6317C39.2616 18.8422 38.808 18.9475 38.3545 18.9475H36.5403V13.6843ZM38.3545 18.737C38.808 18.737 39.1709 18.6317 39.5337 18.4212C39.8966 18.2106 40.078 17.8949 40.2594 17.5791C40.4408 17.2633 40.5315 16.8422 40.5315 16.3159C40.5315 15.8949 40.4408 15.4738 40.2594 15.0527C40.078 14.737 39.8059 14.4212 39.5337 14.2106C39.1709 14.0001 38.808 13.8949 38.3545 13.8949H36.9031V18.6317H38.3545V18.737Z" fill="white"/>
<path d="M42.4364 18.9475C42.1643 18.7369 41.9828 18.5264 41.8014 18.2106C41.62 17.8948 41.5293 17.579 41.5293 17.158C41.5293 16.7369 41.62 16.4212 41.8014 16.1054C41.9828 15.7896 42.1643 15.5791 42.4364 15.3685C42.7085 15.158 42.9807 15.0527 43.3435 15.0527C43.7064 15.0527 43.9785 15.158 44.2506 15.3685C44.5227 15.5791 44.7042 15.7896 44.8856 16.1054C45.067 16.4212 45.1577 16.7369 45.1577 17.158C45.1577 17.579 45.067 17.8948 44.8856 18.2106C44.7042 18.5264 44.5227 18.7369 44.2506 18.9475C43.9785 19.158 43.7064 19.2633 43.3435 19.2633C42.9807 19.158 42.7085 19.0527 42.4364 18.9475ZM43.9785 18.6317C44.1599 18.5264 44.3413 18.3159 44.5227 18.0001C44.6135 17.7896 44.7042 17.4738 44.7042 17.158C44.7042 16.8422 44.6135 16.5264 44.5227 16.3159C44.432 16.1054 44.2506 15.8948 43.9785 15.6843C43.7971 15.579 43.5249 15.4738 43.2528 15.4738C42.9807 15.4738 42.7085 15.579 42.5271 15.6843C42.3457 15.7896 42.1643 16.0001 41.9829 16.3159C41.8921 16.5264 41.8014 16.8422 41.8014 17.158C41.8014 17.4738 41.8921 17.7896 41.9829 18.0001C42.0736 18.2106 42.255 18.4212 42.5271 18.6317C42.7085 18.7369 42.9807 18.8422 43.2528 18.8422C43.6156 18.8422 43.7971 18.7369 43.9785 18.6317Z" fill="white"/>
<path d="M50.9632 15.0527L49.6025 19.0527H49.3304L48.1511 15.5791L46.9719 19.0527H46.6998L45.3391 15.0527H45.702L46.8812 18.6317L48.0604 15.0527H48.3326L49.5118 18.6317L50.691 15.0527H50.9632Z" fill="white"/>
<path d="M54.501 15.4737C54.7731 15.7895 54.8638 16.2105 54.8638 16.7368V19.0526H54.501V16.8421C54.501 16.421 54.4103 16 54.2289 15.7895C54.0474 15.5789 53.7753 15.4737 53.4125 15.4737C52.9589 15.4737 52.6868 15.5789 52.4146 15.8947C52.1425 16.2105 52.0518 16.5263 52.0518 17.0526V19.1579H51.689V15.1579H52.0518V16C52.1425 15.6842 52.3239 15.4737 52.5961 15.3684C52.8682 15.1579 53.1403 15.1579 53.4125 15.1579C53.866 15.0526 54.2289 15.1579 54.501 15.4737Z" fill="white"/>
<path d="M56.2246 13.3684H56.5875V19.1579H56.2246V13.3684Z" fill="white"/>
<path d="M58.4923 18.9475C58.2202 18.7369 58.0388 18.5264 57.8573 18.2106C57.6759 17.8948 57.5852 17.579 57.5852 17.158C57.5852 16.7369 57.6759 16.4212 57.8573 16.1054C58.0388 15.7896 58.2202 15.5791 58.4923 15.3685C58.7644 15.158 59.0366 15.0527 59.3994 15.0527C59.7623 15.0527 60.0344 15.158 60.3065 15.3685C60.5787 15.5791 60.7601 15.7896 60.9415 16.1054C61.1229 16.4212 61.2136 16.7369 61.2136 17.158C61.2136 17.579 61.1229 17.8948 60.9415 18.2106C60.7601 18.5264 60.5787 18.7369 60.3065 18.9475C60.0344 19.158 59.7623 19.2633 59.3994 19.2633C59.0366 19.158 58.7644 19.0527 58.4923 18.9475ZM60.0344 18.6317C60.2158 18.5264 60.3972 18.3159 60.5787 18.0001C60.6694 17.7896 60.7601 17.4738 60.7601 17.158C60.7601 16.8422 60.6694 16.5264 60.5787 16.3159C60.4879 16.1054 60.3065 15.8948 60.0344 15.6843C59.853 15.579 59.5808 15.4738 59.3087 15.4738C59.0366 15.4738 58.7644 15.579 58.583 15.6843C58.4016 15.7896 58.2202 16.0001 58.0388 16.3159C57.948 16.5264 57.8573 16.8422 57.8573 17.158C57.8573 17.4738 57.948 17.7896 58.0388 18.0001C58.1295 18.2106 58.3109 18.4212 58.583 18.6317C58.7644 18.7369 59.0366 18.8422 59.3087 18.8422C59.5808 18.8422 59.853 18.7369 60.0344 18.6317Z" fill="white"/>
<path d="M64.2978 15.4738C64.57 15.6843 64.6607 16.1054 64.6607 16.6317V19.158H64.2978V18.4212C64.2071 18.6317 64.0257 18.8422 63.8443 18.9475C63.6629 19.0527 63.3907 19.158 63.1186 19.158C62.7557 19.158 62.3929 19.0527 62.2115 18.8422C62.0301 18.6317 61.8486 18.3159 61.8486 18.0001C61.8486 17.6843 61.9393 17.3685 62.1208 17.158C62.3022 16.9475 62.665 16.8422 63.1186 16.8422H64.2978V16.5264C64.2978 16.1054 64.2071 15.8948 64.0257 15.6843C63.8443 15.4738 63.5721 15.3685 63.2093 15.3685C62.9372 15.3685 62.7557 15.3685 62.5743 15.4738C62.3929 15.579 62.2115 15.6843 62.0301 15.8948L61.8486 15.5791C62.0301 15.3685 62.2115 15.2633 62.4836 15.158C62.7557 15.0527 63.0279 15.0527 63.2093 15.0527C63.7536 15.0527 64.0257 15.158 64.2978 15.4738ZM63.8443 18.6317C64.0257 18.5264 64.2071 18.2106 64.2978 18.0001V17.2633H63.1186C62.7557 17.2633 62.4836 17.3685 62.3929 17.4738C62.2115 17.5791 62.1208 17.7896 62.1208 18.1054C62.1208 18.4212 62.2115 18.5264 62.3929 18.7369C62.5743 18.8422 62.7557 18.9475 63.1186 18.9475C63.3907 18.8422 63.6629 18.7369 63.8443 18.6317Z" fill="white"/>
<path d="M69.1054 13.3684V19.1579H68.7426V18.2105C68.5612 18.5263 68.3798 18.7368 68.1983 18.9474C67.9262 19.1579 67.6541 19.1579 67.3819 19.1579C67.0191 19.1579 66.747 19.0526 66.4748 18.8421C66.2027 18.6316 66.0213 18.421 65.8399 18.1052C65.6584 17.7895 65.6584 17.4737 65.6584 17.0526C65.6584 16.6316 65.7492 16.3158 65.8399 16C66.0213 15.6842 66.2027 15.4737 66.4748 15.2631C66.747 15.0526 67.0191 15.0526 67.3819 15.0526C67.6541 15.0526 68.0169 15.1579 68.1983 15.2631C68.4705 15.4737 68.6519 15.6842 68.7426 16V13.3684H69.1054ZM68.1076 18.6316C68.2891 18.5263 68.4705 18.3158 68.6519 18C68.7426 17.7895 68.8333 17.4737 68.8333 17.1579C68.8333 16.8421 68.7426 16.5263 68.6519 16.3158C68.5612 16.1053 68.3798 15.8947 68.1076 15.6842C67.9262 15.5789 67.6541 15.4737 67.3819 15.4737C67.1098 15.4737 66.8377 15.5789 66.6563 15.6842C66.4748 15.7895 66.2934 16 66.112 16.3158C66.0213 16.5263 65.9306 16.8421 65.9306 17.1579C65.9306 17.4737 66.0213 17.7895 66.112 18C66.2027 18.2105 66.3841 18.421 66.6563 18.6316C66.8377 18.7368 67.1098 18.8421 67.3819 18.8421C67.6541 18.8421 67.9262 18.7368 68.1076 18.6316Z" fill="white"/>
<path d="M72.734 18.9475C72.4619 18.7369 72.2805 18.5264 72.099 18.2106C71.9176 17.8948 71.8269 17.579 71.8269 17.158C71.8269 16.7369 71.9176 16.4212 72.099 16.1054C72.2805 15.7896 72.4619 15.5791 72.734 15.3685C73.0061 15.158 73.2783 15.0527 73.6411 15.0527C74.004 15.0527 74.2761 15.158 74.5482 15.3685C74.8204 15.5791 75.0018 15.7896 75.1832 16.1054C75.3646 16.4212 75.4553 16.7369 75.4553 17.158C75.4553 17.579 75.3646 17.8948 75.1832 18.2106C75.0018 18.5264 74.8204 18.7369 74.5482 18.9475C74.2761 19.158 74.004 19.2633 73.6411 19.2633C73.2783 19.158 73.0061 19.0527 72.734 18.9475ZM74.3668 18.6317C74.5482 18.5264 74.7296 18.3159 74.9111 18.0001C75.0018 17.7896 75.0925 17.4738 75.0925 17.158C75.0925 16.8422 75.0018 16.5264 74.9111 16.3159C74.8204 16.1054 74.6389 15.8948 74.3668 15.6843C74.1854 15.579 73.9132 15.4738 73.6411 15.4738C73.369 15.4738 73.0969 15.579 72.9154 15.6843C72.734 15.7896 72.5526 16.0001 72.3712 16.3159C72.2805 16.5264 72.1897 16.8422 72.1897 17.158C72.1897 17.4738 72.2805 17.7896 72.3712 18.0001C72.4619 18.2106 72.6433 18.4212 72.9154 18.6317C73.0969 18.7369 73.369 18.8422 73.6411 18.8422C73.9132 18.8422 74.0947 18.7369 74.3668 18.6317Z" fill="white"/>
<path d="M79.1743 15.4737C79.4465 15.7895 79.5372 16.2105 79.5372 16.7368V19.0526H79.1743V16.8421C79.1743 16.421 79.0836 16 78.9022 15.7895C78.7208 15.5789 78.4487 15.4737 78.0858 15.4737C77.6323 15.4737 77.3601 15.5789 77.088 15.8947C76.8159 16.2105 76.7251 16.5263 76.7251 17.0526V19.1579H76.3623V15.1579H76.7251V16C76.8159 15.6842 76.9973 15.4737 77.2694 15.3684C77.5415 15.1579 77.8137 15.1579 78.0858 15.1579C78.5394 15.0526 78.9022 15.1579 79.1743 15.4737Z" fill="white"/>
<path d="M84.3449 18.842C84.2542 18.9473 84.1635 19.0526 84.0728 19.0526C83.9821 19.0526 83.8006 19.1578 83.7099 19.1578C83.4378 19.1578 83.1657 19.0526 82.9843 18.842C82.8028 18.6315 82.7121 18.421 82.7121 17.9999V15.3683H82.0771V15.0526H82.7121V14.2104H83.075V15.0526H84.1635V15.3683H83.075V17.9999C83.075 18.3157 83.1657 18.421 83.2564 18.6315C83.3471 18.7368 83.5285 18.842 83.7099 18.842C83.8914 18.842 84.0728 18.7368 84.2542 18.6315L84.3449 18.842Z" fill="white"/>
<path d="M87.9732 15.4737C88.2453 15.7895 88.336 16.2105 88.336 16.7368V19.0526H87.9732V16.8421C87.9732 16.421 87.8824 16 87.701 15.7895C87.5196 15.5789 87.2475 15.4737 86.8846 15.4737C86.4311 15.4737 86.1589 15.5789 85.8868 15.8947C85.6147 16.2105 85.524 16.5263 85.524 17.0526V19.1579H85.1611V13.3684H85.524V15.8947C85.6147 15.5789 85.7961 15.3684 86.0682 15.2631C86.3404 15.1579 86.6125 15.0526 86.8846 15.0526C87.4289 15.0526 87.7917 15.1579 87.9732 15.4737Z" fill="white"/>
<path d="M92.6901 17.2633H89.6967C89.6967 17.579 89.7874 17.8948 89.8781 18.1054C89.9688 18.3159 90.1502 18.5264 90.4224 18.6317C90.6038 18.7369 90.8759 18.8422 91.1481 18.8422C91.4202 18.8422 91.6016 18.8422 91.783 18.7369C91.9645 18.6317 92.1459 18.5264 92.2366 18.3159L92.418 18.5264C92.2366 18.7369 92.0552 18.9475 91.8737 19.0527C91.6016 19.158 91.4202 19.2633 91.1481 19.2633C90.7852 19.2633 90.5131 19.158 90.241 18.9475C89.9688 18.7369 89.7874 18.5264 89.606 18.2106C89.4246 17.8948 89.4246 17.4738 89.4246 17.158C89.4246 16.7369 89.5153 16.4212 89.606 16.1054C89.7874 15.7896 89.9688 15.5791 90.241 15.3685C90.5131 15.158 90.7852 15.0527 91.0574 15.0527C91.3295 15.0527 91.6923 15.158 91.8737 15.2633C92.1459 15.4738 92.3273 15.6843 92.5087 16.0001C92.6901 16.3159 92.6901 16.6317 92.6901 17.0527V17.2633ZM90.4224 15.5791C90.241 15.6843 90.0595 15.8948 89.9688 16.1054C89.8781 16.3159 89.7874 16.6317 89.7874 16.8422H92.418C92.418 16.5264 92.3273 16.3159 92.2366 16.1054C92.1459 15.8948 91.9645 15.6843 91.783 15.5791C91.6016 15.4738 91.3295 15.3685 91.1481 15.3685C90.7852 15.3685 90.6038 15.4738 90.4224 15.5791Z" fill="white"/>
<path d="M41.4389 31.1579H37.4476L36.6312 33.2632H35.0891L38.7175 24H40.1689L43.7973 33.2632H42.2553L41.4389 31.1579ZM40.9853 29.7895L39.4432 25.6842L37.9919 29.7895H40.9853Z" fill="white"/>
<path d="M49.6933 26.6315C50.1469 26.9473 50.5097 27.3684 50.7819 27.8947C51.054 28.421 51.1447 29.0526 51.1447 29.7894C51.1447 30.5263 51.054 31.1579 50.7819 31.6842C50.5097 32.2105 50.1469 32.6315 49.6933 32.9473C49.2398 33.2631 48.6955 33.3684 48.0605 33.3684C47.2441 33.3684 46.6092 33.0526 46.0649 32.421V35.8947H44.6135V26.2105H45.9742V27.1579C46.2463 26.8421 46.5184 26.5263 46.8813 26.421C47.2441 26.2105 47.607 26.2105 48.0605 26.2105C48.6955 26.1052 49.2398 26.3158 49.6933 26.6315ZM49.2398 31.3684C49.6026 30.9473 49.784 30.421 49.784 29.7894C49.784 29.1579 49.6026 28.6315 49.2398 28.2105C48.8769 27.7894 48.5141 27.5789 47.9698 27.5789C47.607 27.5789 47.3348 27.6842 47.0627 27.8947C46.7906 28.1052 46.6092 28.3158 46.4277 28.6315C46.2463 28.9473 46.1556 29.3684 46.1556 29.7894C46.1556 30.2105 46.2463 30.6315 46.4277 30.9473C46.6092 31.2631 46.7906 31.5789 47.0627 31.6842C47.3348 31.8947 47.607 32 47.9698 32C48.4234 32 48.8769 31.7894 49.2398 31.3684Z" fill="white"/>
<path d="M57.4946 26.6315C57.9481 26.9473 58.311 27.3684 58.5831 27.8947C58.8553 28.421 58.946 29.0526 58.946 29.7894C58.946 30.5263 58.8553 31.1579 58.5831 31.6842C58.311 32.2105 57.9481 32.6315 57.4946 32.9473C57.041 33.2631 56.4968 33.3684 55.8618 33.3684C55.0454 33.3684 54.4104 33.0526 53.8662 32.421V35.8947H52.4148V26.2105H53.7755V27.1579C54.0476 26.8421 54.3197 26.5263 54.6826 26.421C55.0454 26.2105 55.4082 26.2105 55.8618 26.2105C56.4968 26.1052 57.041 26.3158 57.4946 26.6315ZM57.041 31.3684C57.4039 30.9473 57.5853 30.421 57.5853 29.7894C57.5853 29.1579 57.4039 28.6315 57.041 28.2105C56.6782 27.7894 56.3154 27.5789 55.7711 27.5789C55.4082 27.5789 55.1361 27.6842 54.864 27.8947C54.5919 28.1052 54.4104 28.3158 54.229 28.6315C54.0476 28.9473 53.9569 29.3684 53.9569 29.7894C53.9569 30.2105 54.0476 30.6315 54.229 30.9473C54.4104 31.2631 54.5919 31.5789 54.864 31.6842C55.1361 31.8947 55.4082 32 55.7711 32C56.3154 32 56.6782 31.7894 57.041 31.3684Z" fill="white"/>
<path d="M64.3885 33.1579C63.8442 32.9474 63.3907 32.7369 63.0278 32.3158L63.5721 30.9474C63.9349 31.2632 64.2978 31.4737 64.7513 31.6842C65.2049 31.8948 65.7492 32 66.2027 32C66.8377 32 67.2005 31.8948 67.5634 31.6842C67.8355 31.4737 68.0169 31.1579 68.0169 30.8421C68.0169 30.5264 67.9262 30.3158 67.7448 30.2106C67.5634 30 67.3819 29.8948 67.1098 29.7895C66.8377 29.6842 66.4748 29.579 66.112 29.4737C65.477 29.2632 65.0235 29.1579 64.6606 28.9474C64.2978 28.7369 63.9349 28.5264 63.6628 28.2106C63.3907 27.8948 63.3 27.3685 63.3 26.7369C63.3 26.2106 63.3907 25.7895 63.6628 25.3685C63.9349 24.9474 64.2978 24.6316 64.7513 24.3158C65.2049 24.1053 65.8399 23.8948 66.5655 23.8948C67.0191 23.8948 67.5634 24 68.0169 24.1053C68.4705 24.2106 68.924 24.4211 69.1962 24.7369L68.5612 26C68.1983 25.7895 67.8355 25.579 67.4727 25.4737C67.1098 25.3685 66.747 25.2632 66.3841 25.2632C65.8399 25.2632 65.3863 25.3685 65.1142 25.579C64.842 25.7895 64.6606 26.1053 64.6606 26.5264C64.6606 26.8421 64.7513 27.0527 64.9328 27.1579C65.1142 27.3685 65.2956 27.4737 65.5677 27.579C65.8399 27.6842 66.2027 27.7895 66.5655 27.8948C67.2005 28.1053 67.6541 28.2106 68.0169 28.4211C68.3798 28.6316 68.7426 28.8421 69.0147 29.1579C69.2869 29.4737 69.3776 30 69.3776 30.6316C69.3776 31.1579 69.2869 31.579 69.0147 32C68.7426 32.4211 68.3798 32.7369 67.9262 32.9474C67.4727 33.1579 66.8377 33.3685 66.112 33.3685C65.5677 33.4737 64.9328 33.3685 64.3885 33.1579Z" fill="white"/>
<path d="M74.3667 32.9473C74.1853 33.1579 74.0039 33.2631 73.7317 33.2631C73.4596 33.3684 73.2782 33.3684 73.006 33.3684C72.3711 33.3684 71.8268 33.1579 71.464 32.7368C71.1011 32.3158 70.9197 31.7894 70.9197 30.9473V27.5789H69.9219V26.3158H70.9197V24.7368H72.3711V26.3158H74.0039V27.6842H72.3711V31.0526C72.3711 31.3684 72.4618 31.6842 72.5525 31.7894C72.7339 32 72.9153 32.1052 73.1875 32.1052C73.5503 32.1052 73.7317 32 74.0039 31.7894L74.3667 32.9473Z" fill="white"/>
<path d="M76.4531 32.9475C75.9995 32.6317 75.546 32.2107 75.2739 31.6844C75.0017 31.1581 74.8203 30.5265 74.8203 29.7896C74.8203 29.0528 75.0017 28.4212 75.2739 27.8949C75.546 27.3686 75.9088 26.9475 76.4531 26.6317C76.9067 26.316 77.5416 26.2107 78.0859 26.2107C78.7209 26.2107 79.2651 26.316 79.8094 26.6317C80.263 26.9475 80.7165 27.3686 80.9886 27.8949C81.2608 28.4212 81.4422 29.0528 81.4422 29.7896C81.4422 30.5265 81.2608 31.1581 80.9886 31.6844C80.7165 32.2107 80.3537 32.6317 79.8094 32.9475C79.3558 33.2633 78.7209 33.3686 78.0859 33.3686C77.4509 33.3686 76.9067 33.2633 76.4531 32.9475ZM79.3558 31.3686C79.7187 30.9475 79.9001 30.4212 79.9001 29.7896C79.9001 29.1581 79.7187 28.6317 79.3558 28.2107C78.993 27.7896 78.5394 27.5791 78.0859 27.5791C77.5416 27.5791 77.0881 27.7896 76.8159 28.2107C76.4531 28.6317 76.2717 29.1581 76.2717 29.7896C76.2717 30.4212 76.4531 30.9475 76.8159 31.3686C77.1788 31.7896 77.5416 32.0002 78.0859 32.0002C78.6302 32.0002 79.0837 31.7896 79.3558 31.3686Z" fill="white"/>
<path d="M86.2499 26.1052V27.6842C86.1592 27.6842 85.9777 27.6842 85.887 27.6842C85.3428 27.6842 84.8892 27.8947 84.6171 28.2105C84.3449 28.6315 84.1635 29.1579 84.1635 29.7894V33.2631H82.7122V26.2105H84.0728V27.2631C84.5264 26.5263 85.1613 26.1052 86.2499 26.1052Z" fill="white"/>
<path d="M93.1439 30.3157H88.3363C88.427 30.842 88.6084 31.263 88.9712 31.5788C89.3341 31.8946 89.7876 31.9999 90.3319 31.9999C90.9669 31.9999 91.5111 31.7894 91.9647 31.263L92.6904 32.3157C92.4183 32.7367 92.0554 32.9473 91.6926 33.1578C91.239 33.3683 90.7855 33.4736 90.2412 33.4736C89.6062 33.4736 88.9712 33.3683 88.427 33.0525C87.8827 32.7367 87.5199 32.3157 87.2477 31.7894C86.9756 31.263 86.7942 30.6315 86.7942 29.8946C86.7942 29.1578 86.8849 28.6315 87.157 27.9999C87.4292 27.4736 87.792 27.0525 88.2456 26.7367C88.6991 26.4209 89.2434 26.3157 89.8784 26.3157C90.5133 26.3157 90.9669 26.4209 91.5111 26.7367C91.9647 27.0525 92.3275 27.4736 92.5997 27.9999C92.8718 28.5262 92.9625 29.1578 92.9625 29.8946C93.1439 29.8946 93.1439 30.1051 93.1439 30.3157ZM88.8805 27.8946C88.6084 28.2104 88.3363 28.6315 88.3363 29.1578H91.7833C91.6926 28.6315 91.5111 28.2104 91.239 27.8946C90.9669 27.5788 90.5133 27.3683 90.0598 27.3683C89.6062 27.4736 89.2434 27.5788 88.8805 27.8946Z" fill="white"/>
</svg>
