<svg width="110" height="47" viewBox="0 0 110 47" fill="none" xmlns="http://www.w3.org/2000/svg">
<path d="M91.1483 40.5264H18.7612C11.595 40.5264 5.78955 33.7895 5.78955 25.4738V20.8422C5.78955 12.5264 11.595 5.78955 18.7612 5.78955H91.239C98.4051 5.78955 104.211 12.5264 104.211 20.8422V25.4738C104.211 33.7895 98.4051 40.5264 91.1483 40.5264Z" fill="#E53014" fill-opacity="0.8"/>
<path d="M37.9918 26.7368H39.3524V30.3158C38.9896 30.7368 38.4453 30.9474 37.9011 31.1579C37.3568 31.3684 36.8125 31.4737 36.2683 31.4737C35.4519 31.4737 34.7262 31.2632 34.0912 30.8421C33.4563 30.4211 32.912 29.8947 32.5491 29.1579C32.1863 28.4211 32.0049 27.6842 32.0049 26.7368C32.0049 25.8947 32.1863 25.0526 32.5491 24.3158C32.912 23.5789 33.4563 23.0526 34.0912 22.6316C34.7262 22.2105 35.4519 22 36.2683 22C36.9033 22 37.5382 22.1053 38.0825 22.4211C38.6268 22.6316 39.0803 23.0526 39.4432 23.4737L38.5361 24.5263C37.9011 23.7895 37.2661 23.4737 36.359 23.4737C35.8147 23.4737 35.3612 23.5789 34.9076 23.8947C34.4541 24.2105 34.1819 24.5263 33.9098 25.0526C33.6377 25.5789 33.547 26.1053 33.547 26.7368C33.547 27.3684 33.6377 27.8947 33.9098 28.4211C34.1819 28.9474 34.4541 29.2632 34.9076 29.5789C35.3612 29.8947 35.8147 30 36.359 30C36.994 30 37.5382 29.8947 37.9918 29.5789V26.7368Z" fill="white"/>
<path d="M42.1645 31.0527C41.711 30.7369 41.3481 30.3158 41.076 29.7895C40.8038 29.2632 40.7131 28.6316 40.7131 28.0001C40.7131 27.3685 40.8038 26.7369 41.076 26.2106C41.3481 25.6843 41.711 25.2632 42.1645 24.9474C42.6181 24.6316 43.1623 24.5264 43.7973 24.5264C44.4323 24.5264 44.9765 24.6316 45.4301 24.9474C45.8836 25.2632 46.2465 25.6843 46.5186 26.2106C46.7907 26.7369 46.8815 27.3685 46.8815 28.0001C46.8815 28.6316 46.7907 29.2632 46.5186 29.7895C46.2465 30.3158 45.8836 30.7369 45.4301 31.0527C44.9765 31.3685 44.4323 31.4737 43.7973 31.4737C43.253 31.4737 42.7088 31.3685 42.1645 31.0527ZM45.0672 29.4737C45.4301 29.0527 45.6115 28.5264 45.6115 27.8948C45.6115 27.2632 45.4301 26.7369 45.0672 26.3158C44.7044 25.8948 44.3416 25.6843 43.7973 25.6843C43.253 25.6843 42.8902 25.8948 42.5273 26.3158C42.1645 26.7369 42.0738 27.2632 42.0738 27.8948C42.0738 28.5264 42.2552 29.0527 42.5273 29.4737C42.8902 29.8948 43.253 30.1053 43.7973 30.1053C44.3416 30.1053 44.7951 29.8948 45.0672 29.4737Z" fill="white"/>
<path d="M49.4211 31.0527C48.9675 30.7369 48.6047 30.3158 48.3326 29.7895C48.0604 29.2632 47.9697 28.6316 47.9697 28.0001C47.9697 27.3685 48.0604 26.7369 48.3326 26.2106C48.6047 25.6843 48.9675 25.2632 49.4211 24.9474C49.8747 24.6316 50.4189 24.5264 51.0539 24.5264C51.6889 24.5264 52.2331 24.6316 52.6867 24.9474C53.1402 25.2632 53.5031 25.6843 53.7752 26.2106C54.0473 26.7369 54.1381 27.3685 54.1381 28.0001C54.1381 28.6316 54.0473 29.2632 53.7752 29.7895C53.5031 30.3158 53.1402 30.7369 52.6867 31.0527C52.2331 31.3685 51.6889 31.4737 51.0539 31.4737C50.4189 31.4737 49.8747 31.3685 49.4211 31.0527ZM52.3238 29.4737C52.6867 29.0527 52.8681 28.5264 52.8681 27.8948C52.8681 27.2632 52.6867 26.7369 52.3238 26.3158C51.961 25.8948 51.5982 25.6843 51.0539 25.6843C50.5096 25.6843 50.1468 25.8948 49.7839 26.3158C49.4211 26.7369 49.3304 27.2632 49.3304 27.8948C49.3304 28.5264 49.5118 29.0527 49.7839 29.4737C50.1468 29.8948 50.5096 30.1053 51.0539 30.1053C51.5074 30.1053 51.961 29.8948 52.3238 29.4737Z" fill="white"/>
<path d="M61.486 24.5264V30.4211C61.486 32.8422 60.3974 34.1053 58.3111 34.1053C57.7668 34.1053 57.2226 34.0001 56.6783 33.8948C56.134 33.6843 55.7712 33.4737 55.4084 33.1579L56.0433 31.8948C56.3155 32.1053 56.5876 32.3158 57.0412 32.5264C57.404 32.6316 57.8575 32.7369 58.2204 32.7369C58.8554 32.7369 59.3996 32.5264 59.6718 32.2106C59.9439 31.8948 60.1253 31.3685 60.1253 30.6316V30.3158C59.8532 30.6316 59.581 30.8422 59.2182 31.0527C58.8554 31.1579 58.4925 31.2632 58.1297 31.2632C57.5854 31.2632 57.0412 31.1579 56.5876 30.8422C56.134 30.5264 55.7712 30.2106 55.4991 29.6843C55.2269 29.1579 55.1362 28.6316 55.1362 27.8948C55.1362 27.2632 55.2269 26.6316 55.4991 26.1053C55.7712 25.579 56.134 25.1579 56.5876 24.9474C57.0412 24.6316 57.5854 24.5264 58.1297 24.5264C58.5832 24.5264 58.9461 24.6316 59.3089 24.7369C59.6718 24.9474 59.9439 25.1579 60.216 25.4737V24.5264H61.486ZM59.5811 29.1579C59.9439 28.8422 60.1253 28.3158 60.1253 27.6843C60.1253 27.1579 59.9439 26.6316 59.5811 26.3158C59.2182 26.0001 58.7647 25.7895 58.3111 25.7895C57.7668 25.7895 57.3133 26.0001 57.0412 26.3158C56.6783 26.6316 56.4969 27.1579 56.4969 27.6843C56.4969 28.3158 56.6783 28.7369 57.0412 29.1579C57.404 29.4737 57.8576 29.6843 58.3111 29.6843C58.7647 29.6843 59.2182 29.579 59.5811 29.1579Z" fill="white"/>
<path d="M63.3 21.7896H64.6607V31.3685H63.3V21.7896Z" fill="white"/>
<path d="M72.0989 28.4211H67.3819C67.4726 28.9474 67.654 29.3685 68.0169 29.6843C68.3797 30.0001 68.8333 30.1053 69.2868 30.1053C69.9218 30.1053 70.4661 29.8948 70.9196 29.3685L71.6453 30.3158C71.3732 30.7369 71.0103 30.9474 70.6475 31.1579C70.1939 31.3685 69.7404 31.4737 69.2868 31.4737C68.6519 31.4737 68.0169 31.3685 67.5633 31.0527C67.1098 30.7369 66.6562 30.3158 66.3841 29.7895C66.112 29.2632 66.0212 28.6316 66.0212 28.0001C66.0212 27.3685 66.112 26.7369 66.3841 26.2106C66.6562 25.6843 67.0191 25.2632 67.4726 24.9474C67.9262 24.6316 68.4704 24.5264 69.0147 24.5264C69.559 24.5264 70.1032 24.6316 70.5568 24.9474C71.0103 25.2632 71.3732 25.6843 71.6453 26.2106C71.9174 26.7369 72.0081 27.3685 72.0081 28.1053C72.0989 28.1053 72.0989 28.2106 72.0989 28.4211ZM67.9262 26.2106C67.654 26.5264 67.4726 26.9474 67.3819 27.4737H70.7382C70.6475 26.9474 70.4661 26.5264 70.1939 26.2106C69.9218 25.8948 69.4682 25.7895 69.0147 25.7895C68.6519 25.6843 68.289 25.8948 67.9262 26.2106Z" fill="white"/>
<path d="M81.6236 22.7369C82.1679 22.9474 82.5307 23.3684 82.8028 23.8948C83.075 24.4211 83.1657 24.9474 83.1657 25.579C83.1657 26.2105 83.075 26.8421 82.8028 27.2632C82.5307 27.7895 82.1679 28.1053 81.6236 28.4211C81.0793 28.6316 80.5351 28.8421 79.8094 28.8421H78.0859V31.4737H76.6345V22.4211H79.8094C80.5351 22.3158 81.1701 22.4211 81.6236 22.7369ZM81.2608 26.9474C81.6236 26.6316 81.7143 26.2105 81.7143 25.579C81.7143 25.0526 81.5329 24.5263 81.2608 24.2105C80.8979 23.8948 80.4444 23.7895 79.8094 23.7895H78.0859V27.3684H79.8094C80.4444 27.3684 80.8979 27.2632 81.2608 26.9474Z" fill="white"/>
<path d="M84.6169 21.7896H85.9776V31.3685H84.6169V21.7896Z" fill="white"/>
<path d="M92.146 25.158C92.5996 25.6843 92.8717 26.4211 92.8717 27.3685V31.4738H91.5111V30.5264C91.3297 30.8422 91.0575 31.0527 90.7854 31.2632C90.5133 31.4738 90.0597 31.4738 89.6061 31.4738C89.1526 31.4738 88.7898 31.3685 88.4269 31.158C88.0641 30.9475 87.7919 30.7369 87.6105 30.4211C87.4291 30.1054 87.3384 29.7896 87.3384 29.3685C87.3384 28.7369 87.5198 28.2106 87.9734 27.8948C88.3362 27.4738 88.9712 27.3685 89.8783 27.3685H91.4204V27.2632C91.4204 26.7369 91.3297 26.4211 91.0575 26.1054C90.7854 25.8948 90.4225 25.6843 89.969 25.6843C89.6061 25.6843 89.334 25.7896 88.9712 25.8948C88.6083 26.0001 88.3362 26.2106 88.1548 26.4211L87.6105 25.2632C87.8826 24.9475 88.3362 24.7369 88.699 24.6317C89.1526 24.5264 89.6061 24.4211 90.0597 24.4211C91.0575 24.4211 91.6925 24.6317 92.146 25.158ZM90.8761 30.0001C91.1482 29.7896 91.3296 29.579 91.4204 29.158V28.4211H89.969C89.1526 28.4211 88.7898 28.7369 88.7898 29.3685C88.7898 29.6843 88.8805 29.8948 89.0619 30.1054C89.2433 30.3159 89.5154 30.3159 89.8783 30.3159C90.3318 30.3159 90.604 30.2106 90.8761 30.0001Z" fill="white"/>
<path d="M100.128 24.5264L97.3163 32.0001C97.0442 32.7369 96.7721 33.2632 96.4092 33.579C96.0464 33.8948 95.5928 34.0001 95.0486 34.0001C94.7764 34.0001 94.4136 33.8948 94.1415 33.7896C93.8693 33.6843 93.5972 33.4738 93.4158 33.3685L93.96 32.2106C94.0507 32.3159 94.2322 32.5264 94.4136 32.5264C94.595 32.6317 94.7764 32.6317 94.9579 32.6317C95.23 32.6317 95.4114 32.5264 95.5928 32.4211C95.7743 32.3159 95.865 32.0001 96.0464 31.6843L96.1371 31.3685L93.5065 24.4211H94.9579L96.8628 29.579L98.7677 24.4211H100.128V24.5264Z" fill="white"/>
<path d="M29.4649 22.7368L25.7458 20.2104L22.6616 23.6841L25.4737 26.842L29.4649 24.1052C29.6463 23.9999 29.8278 23.6841 29.8278 23.3683C29.7371 23.1578 29.6463 22.842 29.4649 22.7368Z" fill="#FFD109"/>
<path d="M25.0202 19.7893L20.9383 17.0525L11.8672 11.6841L22.1175 23.0525L25.0202 19.7893Z" fill="#06EF79"/>
<path d="M12.0486 35.4736L20.9382 29.7894L24.7481 27.2631L22.1175 24.2104L12.0486 35.4736Z" fill="#F93646"/>
<path d="M11.2322 12.1052V35.2631L21.5732 23.6842L11.2322 12.1052Z" fill="#05D5FB"/>
<path d="M34.6357 17.2631C34.3636 17.2631 34.0007 17.1578 33.7286 17.0525C33.4564 16.842 33.1843 16.6315 33.0029 16.421C32.8215 16.1052 32.6401 15.8946 32.5493 15.4736C32.4586 15.1578 32.3679 14.7368 32.3679 14.421C32.3679 13.9999 32.4586 13.6841 32.5493 13.3683C32.6401 13.0525 32.8215 12.7368 33.0029 12.421C33.1843 12.2104 33.4564 11.9999 33.7286 11.7894C34.0007 11.6841 34.2728 11.5789 34.6357 11.5789C35.0892 11.5789 35.4521 11.6841 35.8149 11.8946C36.0871 12.1052 36.3592 12.421 36.5406 12.7368L36.0871 13.1578C35.9056 12.842 35.7242 12.6315 35.5428 12.421C35.2707 12.3157 34.9985 12.2104 34.7264 12.2104C34.4543 12.2104 34.2728 12.3157 34.0914 12.421C33.91 12.5262 33.7286 12.7368 33.5472 12.9473C33.3657 13.1578 33.275 13.3683 33.1843 13.6841C33.0936 13.8946 33.0936 14.2104 33.0936 14.5262C33.0936 14.842 33.0936 15.0525 33.1843 15.3683C33.275 15.6841 33.3657 15.8946 33.5472 16.1052C33.7286 16.3157 33.91 16.421 34.0914 16.6315C34.2728 16.7368 34.545 16.842 34.7264 16.842C34.9985 16.842 35.2707 16.7368 35.5428 16.6315C35.8149 16.421 35.9963 16.2104 36.2685 15.8946V16.6315C35.7242 17.0525 35.1799 17.2631 34.6357 17.2631ZM36.0871 15.0525H34.9985V14.5262H36.5406V17.2631H35.9963V15.0525H36.0871Z" fill="white"/>
<path d="M40.7131 16.6314V17.263H37.4475V11.6841H40.6224V12.3157H37.9918V14.1051H40.2595V14.7367H37.9918V16.6314H40.7131Z" fill="white"/>
<path d="M45.0673 12.3157H43.4345V17.263H42.7995V12.3157H41.1667V11.6841H45.0673V12.3157Z" fill="white"/>
<path d="M47.2444 17.263V11.6841H47.8794V17.263H47.2444Z" fill="white"/>
<path d="M49.6027 13.0525V17.263H48.9678V11.6841H49.512L52.4148 15.9999V11.6841H53.0498V17.263H52.5055L49.6027 13.0525Z" fill="white"/>
<path d="M57.8574 17.2631C57.4945 17.2631 57.2224 17.1578 56.9503 17.0525C56.6781 16.9473 56.406 16.6315 56.2246 16.421C56.0432 16.1052 55.8617 15.8946 55.771 15.4736C55.6803 15.1578 55.5896 14.842 55.5896 14.421C55.5896 13.9999 55.6803 13.6841 55.771 13.3683C55.8617 13.0525 56.0432 12.7368 56.2246 12.421C56.406 12.1052 56.6781 11.9999 56.9503 11.7894C57.2224 11.6841 57.4945 11.5789 57.8574 11.5789C58.2202 11.5789 58.4923 11.6841 58.7645 11.7894C59.0366 11.9999 59.3087 12.2104 59.4902 12.421C59.6716 12.7368 59.853 12.9473 59.9437 13.3683C60.0344 13.6841 60.1251 13.9999 60.1251 14.421C60.1251 14.842 60.0344 15.1578 59.9437 15.4736C59.853 15.7894 59.6716 16.1052 59.4902 16.421C59.3087 16.7368 59.0366 16.842 58.7645 17.0525C58.4923 17.2631 58.1295 17.2631 57.8574 17.2631ZM56.2246 14.5262C56.2246 14.842 56.2246 15.0525 56.3153 15.3683C56.406 15.6841 56.4967 15.8946 56.6781 16.1052C56.8595 16.3157 56.9503 16.421 57.2224 16.6315C57.4038 16.7368 57.6759 16.842 57.8574 16.842C58.1295 16.842 58.3109 16.7368 58.5831 16.6315C58.7645 16.5262 58.9459 16.3157 59.1273 16.1052C59.3087 15.8946 59.3994 15.6841 59.4902 15.3683C59.4902 15.0525 59.4902 14.7368 59.4902 14.5262C59.4902 14.2104 59.4902 13.9999 59.3994 13.6841C59.3087 13.4736 59.218 13.1578 59.0366 12.9473C58.8552 12.7368 58.6738 12.6315 58.4923 12.421C58.3109 12.3157 58.0388 12.2104 57.8574 12.2104C57.5852 12.2104 57.4038 12.3157 57.1317 12.421C56.9503 12.5262 56.7688 12.7368 56.5874 12.9473C56.406 13.1578 56.3153 13.3683 56.2246 13.6841C56.2246 13.9999 56.2246 14.2104 56.2246 14.5262Z" fill="white"/>
<path d="M61.5766 13.0525V17.263H60.9417V11.6841H61.4859L64.3887 15.9999V11.6841H65.0236V17.263H64.4794L61.5766 13.0525Z" fill="white"/>
</svg>
