<svg width="519" height="134" viewBox="0 0 519 134" fill="none" xmlns="http://www.w3.org/2000/svg">
<path d="M36.1815 61.5186V70.0468H2.90323V62.8613L18.1815 46.7847C21.9556 42.454 23.8427 38.9581 23.8427 36.2968C23.8427 34.4097 23.371 32.9339 22.4274 31.8694C21.4839 30.8049 20.1532 30.2726 18.4355 30.2726C16.7177 30.2726 15.375 30.9621 14.4073 32.3411C13.4395 33.7202 12.9556 35.5226 12.9556 37.7484H2.17742L2.14113 37.5307C2.02016 33.0549 3.45968 29.3169 6.45968 26.3169C9.48387 23.2928 13.5121 21.7807 18.5444 21.7807C23.6008 21.7807 27.5927 23.0629 30.5202 25.6274C33.4476 28.1678 34.9113 31.6879 34.9113 36.1879C34.9113 39.0428 34.2218 41.571 32.8427 43.7726C31.4637 45.95 28.5121 49.5065 23.9879 54.4419L17.5282 61.3371L17.6371 61.5186H36.1815ZM59.7339 51.4299V36.8049L59.5161 36.7323L50.5161 51.4299H59.7339ZM70.7661 22.4702V51.4299H75.5565V59.9944H70.7661V70.0105H59.7339V59.9944H41.2984L40.6452 53.1718L59.7339 22.5428V22.4702H70.7661ZM97.5121 62.2807C99.1573 62.2807 100.5 61.5065 101.54 59.9581C102.605 58.4097 103.137 56.4863 103.137 54.1879C103.137 51.8653 102.641 49.9903 101.649 48.5629C100.657 47.1355 99.3387 46.4218 97.6936 46.4218C94.7178 46.4218 92.5403 47.2081 91.1613 48.7807V51.6113C91.1613 55.0468 91.7178 57.6839 92.8307 59.5226C93.9436 61.3613 95.504 62.2807 97.5121 62.2807ZM80.2379 42.0307H80.129C80.129 35.8129 81.9436 30.9016 85.5726 27.2968C89.2016 23.6678 93.9678 21.8532 99.871 21.8532C101.734 21.8532 103.379 22.0105 104.806 22.325C106.258 22.6153 107.903 23.1234 109.742 23.8492L107.927 31.8694C104.831 30.95 102.181 30.4903 99.9798 30.4903C97.2944 30.4903 95.1774 31.4218 93.629 33.2847C92.1048 35.1476 91.3669 37.821 91.4153 41.3049L91.5242 41.4863C93.6048 39.1637 96.7137 38.0024 100.851 38.0024C105.012 38.0024 108.29 39.5024 110.685 42.5024C113.081 45.5024 114.278 49.4218 114.278 54.2605C114.278 59.075 112.718 63.0307 109.597 66.1274C106.476 69.2242 102.375 70.7726 97.2944 70.7726C92.2379 70.7726 88.125 69.0549 84.9557 65.6194C81.8105 62.1839 80.2379 57.5145 80.2379 51.6113V42.0307ZM199.198 70.0105H188.202V33.5387H177.605V25.7363L199.198 22.4339V70.0105ZM229.827 41.7766C231.811 41.7766 233.335 41.2565 234.399 40.2161C235.488 39.1516 236.032 37.7484 236.032 36.0065C236.032 34.2645 235.536 32.8976 234.544 31.9057C233.552 30.9137 232.234 30.4178 230.589 30.4178C228.944 30.4178 227.589 30.8411 226.524 31.6879C225.46 32.5105 224.927 33.5629 224.927 34.8452H214.222L214.149 34.6637C214.028 30.9137 215.492 27.8532 218.54 25.4823C221.589 23.1113 225.399 21.9258 229.972 21.9258C235.222 21.9258 239.371 23.1113 242.419 25.4823C245.468 27.8532 246.992 31.1919 246.992 35.4984C246.992 37.6516 246.327 39.6355 244.996 41.45C243.665 43.2645 241.863 44.6799 239.589 45.696C242.202 46.6395 244.21 48.0669 245.613 49.9782C247.04 51.8653 247.754 54.1274 247.754 56.7645C247.754 61.071 246.109 64.4823 242.819 66.9984C239.552 69.5145 235.27 70.7726 229.972 70.7726C226.899 70.7726 224.117 70.2645 221.625 69.2484C219.133 68.2323 217.125 66.6718 215.601 64.5669C214.077 62.4379 213.351 59.946 213.423 57.0911L213.46 56.8734H224.238C224.238 58.3976 224.831 59.6799 226.016 60.7202C227.202 61.7605 228.702 62.2807 230.516 62.2807C232.331 62.2807 233.819 61.7484 234.98 60.6839C236.141 59.5952 236.722 58.2161 236.722 56.5468C236.722 52.1194 234.411 49.9057 229.79 49.9057H224.601L224.637 41.7766H229.827ZM325.198 41.7766C327.181 41.7766 328.706 41.2565 329.77 40.2161C330.859 39.1516 331.403 37.7484 331.403 36.0065C331.403 34.2645 330.907 32.8976 329.915 31.9057C328.923 30.9137 327.605 30.4178 325.96 30.4178C324.315 30.4178 322.96 30.8411 321.895 31.6879C320.831 32.5105 320.298 33.5629 320.298 34.8452H309.593L309.52 34.6637C309.399 30.9137 310.863 27.8532 313.911 25.4823C316.96 23.1113 320.77 21.9258 325.343 21.9258C330.593 21.9258 334.742 23.1113 337.79 25.4823C340.839 27.8532 342.363 31.1919 342.363 35.4984C342.363 37.6516 341.698 39.6355 340.367 41.45C339.036 43.2645 337.234 44.6799 334.96 45.696C337.573 46.6395 339.581 48.0669 340.984 49.9782C342.411 51.8653 343.125 54.1274 343.125 56.7645C343.125 61.071 341.48 64.4823 338.19 66.9984C334.923 69.5145 330.641 70.7726 325.343 70.7726C322.27 70.7726 319.488 70.2645 316.996 69.2484C314.504 68.2323 312.496 66.6718 310.972 64.5669C309.448 62.4379 308.722 59.946 308.794 57.0911L308.831 56.8734H319.609C319.609 58.3976 320.202 59.6799 321.387 60.7202C322.573 61.7605 324.073 62.2807 325.887 62.2807C327.702 62.2807 329.19 61.7484 330.351 60.6839C331.512 59.5952 332.093 58.2161 332.093 56.5468C332.093 52.1194 329.782 49.9057 325.161 49.9057H319.972L320.008 41.7766H325.198ZM372.085 70.0105H361.089V33.5387H350.492V25.7363L372.085 22.4339V70.0105ZM462.121 51.4299V36.8049L461.903 36.7323L452.903 51.4299H462.121ZM473.153 22.4702V51.4299H477.944V59.9944H473.153V70.0105H462.121V59.9944H443.686L443.032 53.1718L462.121 22.5428V22.4702H473.153ZM498.085 41.7766C500.069 41.7766 501.593 41.2565 502.657 40.2161C503.746 39.1516 504.29 37.7484 504.29 36.0065C504.29 34.2645 503.794 32.8976 502.802 31.9057C501.811 30.9137 500.492 30.4178 498.847 30.4178C497.202 30.4178 495.847 30.8411 494.782 31.6879C493.718 32.5105 493.186 33.5629 493.186 34.8452H482.48L482.407 34.6637C482.286 30.9137 483.75 27.8532 486.798 25.4823C489.847 23.1113 493.657 21.9258 498.23 21.9258C503.48 21.9258 507.629 23.1113 510.677 25.4823C513.726 27.8532 515.25 31.1919 515.25 35.4984C515.25 37.6516 514.585 39.6355 513.254 41.45C511.923 43.2645 510.121 44.6799 507.847 45.696C510.46 46.6395 512.468 48.0669 513.871 49.9782C515.298 51.8653 516.012 54.1274 516.012 56.7645C516.012 61.071 514.367 64.4823 511.077 66.9984C507.811 69.5145 503.528 70.7726 498.23 70.7726C495.157 70.7726 492.375 70.2645 489.883 69.2484C487.391 68.2323 485.383 66.6718 483.859 64.5669C482.335 62.4379 481.609 59.946 481.681 57.0911L481.718 56.8734H492.496C492.496 58.3976 493.089 59.6799 494.274 60.7202C495.46 61.7605 496.96 62.2807 498.774 62.2807C500.589 62.2807 502.077 61.7484 503.238 60.6839C504.399 59.5952 504.98 58.2161 504.98 56.5468C504.98 52.1194 502.669 49.9057 498.048 49.9057H492.859L492.895 41.7766H498.085Z" fill="#2E2241"/>
<path d="M6.50781 114.575H4.31055V124.653H6.50781C7.6862 124.653 8.61719 124.272 9.30078 123.51C9.99089 122.742 10.3359 121.736 10.3359 120.493V118.725C10.3359 117.488 9.99089 116.489 9.30078 115.727C8.61068 114.959 7.67969 114.575 6.50781 114.575ZM6.50781 126.01H2.58203V113.218H6.50781C8.1875 113.218 9.5319 113.729 10.541 114.751C11.5566 115.766 12.0645 117.098 12.0645 118.745V120.493C12.0645 122.14 11.5566 123.471 10.541 124.487C9.5319 125.503 8.1875 126.01 6.50781 126.01ZM16.8203 126.216C15.8307 126.216 15.0755 125.965 14.5547 125.464C14.0339 124.962 13.7734 124.259 13.7734 123.354C13.7734 122.449 14.138 121.74 14.8672 121.225C15.5964 120.711 16.599 120.454 17.875 120.454H19.75V119.516C19.75 118.956 19.5775 118.517 19.2324 118.198C18.8939 117.872 18.4316 117.71 17.8457 117.71C17.2663 117.71 16.8008 117.85 16.4492 118.13C16.0977 118.403 15.9219 118.745 15.9219 119.155H14.2715L14.252 119.106C14.2194 118.39 14.5514 117.752 15.248 117.192C15.9512 116.626 16.8431 116.343 17.9238 116.343C19.0111 116.343 19.877 116.622 20.5215 117.182C21.166 117.736 21.4883 118.52 21.4883 119.536V124.116C21.4883 124.852 21.5697 125.49 21.7324 126.03H19.9453C19.8216 125.425 19.7565 124.949 19.75 124.604C19.4115 125.086 18.9818 125.477 18.4609 125.776C17.9466 126.069 17.3997 126.216 16.8203 126.216ZM15.5215 123.393H15.5117C15.5117 123.823 15.6452 124.158 15.9121 124.399C16.179 124.64 16.5924 124.76 17.1523 124.76C17.7122 124.76 18.2461 124.604 18.7539 124.292C19.2682 123.973 19.6035 123.602 19.7598 123.178V121.626H17.8262C17.1361 121.626 16.5794 121.798 16.1562 122.143C15.7331 122.482 15.5215 122.899 15.5215 123.393ZM24.7012 130.278C24.4538 130.278 24.112 130.233 23.6758 130.141L23.8516 128.774C24.2812 128.807 24.5384 128.823 24.623 128.823C24.9616 128.823 25.2448 128.68 25.4727 128.393C25.707 128.107 25.9186 127.723 26.1074 127.241L26.5176 126.245L22.9824 116.928H24.916L26.9375 122.915L27.2402 124.106H27.2988L29.6328 116.928H31.5566L27.5625 127.895C26.957 129.484 26.0033 130.278 24.7012 130.278ZM36.6152 124.839C37.2272 124.839 37.709 124.718 38.0605 124.477C38.4121 124.23 38.5879 123.904 38.5879 123.501C38.5879 123.097 38.4382 122.778 38.1387 122.544C37.8392 122.303 37.2956 122.091 36.5078 121.909C35.3099 121.649 34.4277 121.303 33.8613 120.874C33.3014 120.438 33.0215 119.839 33.0215 119.077C33.0215 118.315 33.3535 117.667 34.0176 117.134C34.6816 116.593 35.5475 116.323 36.6152 116.323C37.6829 116.323 38.5456 116.606 39.2031 117.173C39.8672 117.733 40.1829 118.429 40.1504 119.262L40.1309 119.311H38.4805C38.4805 118.875 38.3014 118.497 37.9434 118.178C37.5918 117.859 37.1263 117.7 36.5469 117.7C35.974 117.7 35.5312 117.83 35.2188 118.091C34.9062 118.344 34.75 118.67 34.75 119.067C34.75 119.464 34.8867 119.767 35.1602 119.975C35.4336 120.184 35.9707 120.372 36.7715 120.542C37.9954 120.809 38.8939 121.167 39.4668 121.616C40.0397 122.059 40.3262 122.648 40.3262 123.384C40.3262 124.23 39.9844 124.913 39.3008 125.434C38.6237 125.955 37.7122 126.216 36.5664 126.216C35.4206 126.216 34.4928 125.916 33.7832 125.317C33.0801 124.718 32.7448 123.992 32.7773 123.139L32.7969 123.091H34.4473C34.4798 123.677 34.6979 124.119 35.1016 124.419C35.5117 124.712 36.0228 124.858 36.6348 124.858L36.6152 124.839ZM189.604 113.218V126.01H187.875V120.356H181.654V126.01H179.926V113.218H181.654V118.999H187.875V113.218H189.604ZM193.783 121.186V121.382C193.783 122.436 193.998 123.279 194.428 123.911C194.864 124.542 195.489 124.858 196.303 124.858C197.117 124.858 197.742 124.542 198.178 123.911C198.614 123.273 198.832 122.43 198.832 121.382V121.186C198.832 120.151 198.611 119.315 198.168 118.677C197.732 118.032 197.107 117.71 196.293 117.71C195.486 117.71 194.864 118.032 194.428 118.677C193.998 119.315 193.783 120.151 193.783 121.186ZM192.045 121.382V121.186C192.045 119.754 192.429 118.589 193.197 117.69C193.965 116.792 195.001 116.343 196.303 116.343C197.605 116.343 198.64 116.792 199.408 117.69C200.176 118.582 200.561 119.747 200.561 121.186V121.382C200.561 122.827 200.176 123.996 199.408 124.887C198.646 125.773 197.611 126.216 196.303 126.216C195.001 126.216 193.965 125.77 193.197 124.878C192.429 123.986 192.045 122.82 192.045 121.382ZM205.951 126.216C204.883 126.216 204.066 125.88 203.5 125.21C202.934 124.533 202.65 123.504 202.65 122.124V116.518H204.379V122.143C204.379 123.139 204.522 123.833 204.809 124.223C205.102 124.614 205.574 124.809 206.225 124.809C207.416 124.809 208.23 124.331 208.666 123.374V116.518H210.395V126.03H208.842L208.725 124.624C208.1 125.685 207.175 126.216 205.951 126.216ZM214.652 126.02H212.924V116.509H214.467L214.633 117.895C215.212 116.847 216 116.323 216.996 116.323C217.23 116.323 217.452 116.356 217.66 116.421L217.426 118.042L216.537 117.983C215.645 117.983 215.017 118.397 214.652 119.223V126.02ZM222.631 124.839C223.243 124.839 223.725 124.718 224.076 124.477C224.428 124.23 224.604 123.904 224.604 123.501C224.604 123.097 224.454 122.778 224.154 122.544C223.855 122.303 223.311 122.091 222.523 121.909C221.326 121.649 220.443 121.303 219.877 120.874C219.317 120.438 219.037 119.839 219.037 119.077C219.037 118.315 219.369 117.667 220.033 117.134C220.697 116.593 221.563 116.323 222.631 116.323C223.699 116.323 224.561 116.606 225.219 117.173C225.883 117.733 226.199 118.429 226.166 119.262L226.146 119.311H224.496C224.496 118.875 224.317 118.497 223.959 118.178C223.607 117.859 223.142 117.7 222.562 117.7C221.99 117.7 221.547 117.83 221.234 118.091C220.922 118.344 220.766 118.67 220.766 119.067C220.766 119.464 220.902 119.767 221.176 119.975C221.449 120.184 221.986 120.372 222.787 120.542C224.011 120.809 224.91 121.167 225.482 121.616C226.055 122.059 226.342 122.648 226.342 123.384C226.342 124.23 226 124.913 225.316 125.434C224.639 125.955 223.728 126.216 222.582 126.216C221.436 126.216 220.508 125.916 219.799 125.317C219.096 124.718 218.76 123.992 218.793 123.139L218.812 123.091H220.463C220.495 123.677 220.714 124.119 221.117 124.419C221.527 124.712 222.038 124.858 222.65 124.858L222.631 124.839ZM310.082 113.218H312.299L316.371 123.608H316.43L320.502 113.218H322.719V126.01H320.99V120.952L321.166 115.747L321.117 115.737L316.977 126.01H315.824L311.693 115.766H311.645L311.811 120.952V126.01H310.082V113.218ZM327.445 116.499V126.01H325.717V116.499H327.445ZM327.445 112.3V114.067H325.717V112.3H327.445ZM330.111 116.499H331.654L331.781 117.915C332.439 116.854 333.38 116.323 334.604 116.323C335.645 116.323 336.443 116.629 336.996 117.241C337.549 117.846 337.826 118.768 337.826 120.005V126.01H336.098V120.044C336.098 119.217 335.935 118.624 335.609 118.266C335.284 117.908 334.776 117.729 334.086 117.729C333.591 117.729 333.152 117.846 332.768 118.081C332.383 118.315 332.074 118.647 331.84 119.077V126.01H330.111V116.499ZM343.607 126.216C342.54 126.216 341.723 125.88 341.156 125.21C340.59 124.533 340.307 123.504 340.307 122.124V116.518H342.035V122.143C342.035 123.139 342.178 123.833 342.465 124.223C342.758 124.614 343.23 124.809 343.881 124.809C345.072 124.809 345.886 124.331 346.322 123.374V116.518H348.051V126.03H346.498L346.381 124.624C345.756 125.685 344.831 126.216 343.607 126.216ZM351.127 114.223H352.875V116.518H354.672V117.807H352.875V123.579C352.875 124.386 353.21 124.79 353.881 124.79C354.089 124.79 354.304 124.751 354.525 124.673L354.75 125.854C354.438 126.095 353.998 126.216 353.432 126.216C352.702 126.216 352.136 125.997 351.732 125.561C351.329 125.125 351.127 124.464 351.127 123.579V117.807H349.623V116.518H351.127V114.223ZM362.641 120.102C362.641 119.386 362.455 118.81 362.084 118.374C361.713 117.931 361.179 117.71 360.482 117.71C359.91 117.71 359.415 117.951 358.998 118.432C358.588 118.914 358.334 119.529 358.236 120.278L358.256 120.327H362.641V120.102ZM360.746 126.216C359.424 126.216 358.37 125.779 357.582 124.907C356.801 124.035 356.41 122.885 356.41 121.46V121.069C356.41 119.734 356.807 118.615 357.602 117.71C358.402 116.798 359.363 116.343 360.482 116.343C361.745 116.343 362.709 116.723 363.373 117.485C364.044 118.24 364.379 119.279 364.379 120.6V121.684H358.207L358.178 121.723C358.197 122.661 358.432 123.419 358.881 123.999C359.337 124.572 359.958 124.858 360.746 124.858C361.853 124.858 362.751 124.546 363.441 123.921L364.125 125.044H364.115C363.321 125.825 362.198 126.216 360.746 126.216ZM369.877 124.839C370.489 124.839 370.971 124.718 371.322 124.477C371.674 124.23 371.85 123.904 371.85 123.501C371.85 123.097 371.7 122.778 371.4 122.544C371.101 122.303 370.557 122.091 369.77 121.909C368.572 121.649 367.689 121.303 367.123 120.874C366.563 120.438 366.283 119.839 366.283 119.077C366.283 118.315 366.615 117.667 367.279 117.134C367.943 116.593 368.809 116.323 369.877 116.323C370.945 116.323 371.807 116.606 372.465 117.173C373.129 117.733 373.445 118.429 373.412 119.262L373.393 119.311H371.742C371.742 118.875 371.563 118.497 371.205 118.178C370.854 117.859 370.388 117.7 369.809 117.7C369.236 117.7 368.793 117.83 368.48 118.091C368.168 118.344 368.012 118.67 368.012 119.067C368.012 119.464 368.148 119.767 368.422 119.975C368.695 120.184 369.232 120.372 370.033 120.542C371.257 120.809 372.156 121.167 372.729 121.616C373.301 122.059 373.588 122.648 373.588 123.384C373.588 124.23 373.246 124.913 372.562 125.434C371.885 125.955 370.974 126.216 369.828 126.216C368.682 126.216 367.755 125.916 367.045 125.317C366.342 124.718 366.007 123.992 366.039 123.139L366.059 123.091H367.709C367.742 123.677 367.96 124.119 368.363 124.419C368.773 124.712 369.285 124.858 369.896 124.858L369.877 124.839ZM448.158 122.348C448.158 123.149 448.448 123.768 449.027 124.204C449.613 124.64 450.359 124.858 451.264 124.858C452.169 124.858 452.875 124.676 453.383 124.311C453.891 123.94 454.145 123.445 454.145 122.827C454.145 122.208 453.917 121.704 453.461 121.313C453.012 120.923 452.24 120.597 451.146 120.337C448.275 119.647 446.84 118.384 446.84 116.548C446.84 115.538 447.25 114.705 448.07 114.048C448.891 113.384 449.965 113.052 451.293 113.052C452.628 113.052 453.718 113.426 454.564 114.175C455.411 114.923 455.818 115.822 455.785 116.87L455.766 116.928H454.115C454.115 116.16 453.865 115.548 453.363 115.093C452.862 114.637 452.169 114.409 451.283 114.409C450.404 114.409 449.73 114.601 449.262 114.985C448.799 115.363 448.568 115.854 448.568 116.46C448.568 117.059 448.816 117.544 449.311 117.915C449.805 118.279 450.616 118.605 451.742 118.891C454.496 119.588 455.873 120.887 455.873 122.788C455.873 123.823 455.453 124.653 454.613 125.278C453.773 125.903 452.67 126.216 451.303 126.216C450.437 126.216 449.636 126.066 448.9 125.766C448.171 125.46 447.582 125.011 447.133 124.419C446.684 123.826 446.469 123.152 446.488 122.397L446.508 122.348H448.158ZM463.91 120.102C463.91 119.386 463.725 118.81 463.354 118.374C462.982 117.931 462.449 117.71 461.752 117.71C461.179 117.71 460.684 117.951 460.268 118.432C459.857 118.914 459.604 119.529 459.506 120.278L459.525 120.327H463.91V120.102ZM462.016 126.216C460.694 126.216 459.639 125.779 458.852 124.907C458.07 124.035 457.68 122.885 457.68 121.46V121.069C457.68 119.734 458.077 118.615 458.871 117.71C459.672 116.798 460.632 116.343 461.752 116.343C463.015 116.343 463.979 116.723 464.643 117.485C465.313 118.24 465.648 119.279 465.648 120.6V121.684H459.477L459.447 121.723C459.467 122.661 459.701 123.419 460.15 123.999C460.606 124.572 461.228 124.858 462.016 124.858C463.122 124.858 464.021 124.546 464.711 123.921L465.395 125.044H465.385C464.59 125.825 463.467 126.216 462.016 126.216ZM468.949 121.46C468.949 122.482 469.138 123.289 469.516 123.882C469.926 124.533 470.58 124.858 471.479 124.858C472.064 124.858 472.572 124.679 473.002 124.321C473.432 123.963 473.646 123.53 473.646 123.022H475.199L475.219 123.081C475.251 123.908 474.89 124.637 474.135 125.268C473.38 125.9 472.494 126.216 471.479 126.216C470.124 126.216 469.073 125.776 468.324 124.897C467.576 124.018 467.201 122.872 467.201 121.46V121.089C467.201 119.682 467.576 118.54 468.324 117.661C469.079 116.782 470.131 116.343 471.479 116.343C472.585 116.343 473.493 116.668 474.203 117.319C474.913 117.97 475.255 118.781 475.229 119.751L475.209 119.8H473.646C473.646 119.214 473.441 118.719 473.031 118.315C472.621 117.912 472.11 117.71 471.498 117.71C470.893 117.71 470.395 117.863 470.004 118.169C469.62 118.475 469.346 118.872 469.184 119.36C469.027 119.848 468.949 120.425 468.949 121.089V121.46ZM478.49 121.186V121.382C478.49 122.436 478.705 123.279 479.135 123.911C479.571 124.542 480.196 124.858 481.01 124.858C481.824 124.858 482.449 124.542 482.885 123.911C483.321 123.273 483.539 122.43 483.539 121.382V121.186C483.539 120.151 483.318 119.315 482.875 118.677C482.439 118.032 481.814 117.71 481 117.71C480.193 117.71 479.571 118.032 479.135 118.677C478.705 119.315 478.49 120.151 478.49 121.186ZM476.752 121.382V121.186C476.752 119.754 477.136 118.589 477.904 117.69C478.673 116.792 479.708 116.343 481.01 116.343C482.312 116.343 483.347 116.792 484.115 117.69C484.883 118.582 485.268 119.747 485.268 121.186V121.382C485.268 122.827 484.883 123.996 484.115 124.887C483.354 125.773 482.318 126.216 481.01 126.216C479.708 126.216 478.673 125.77 477.904 124.878C477.136 123.986 476.752 122.82 476.752 121.382ZM487.396 116.499H488.939L489.066 117.915C489.724 116.854 490.665 116.323 491.889 116.323C492.93 116.323 493.728 116.629 494.281 117.241C494.835 117.846 495.111 118.768 495.111 120.005V126.01H493.383V120.044C493.383 119.217 493.22 118.624 492.895 118.266C492.569 117.908 492.061 117.729 491.371 117.729C490.876 117.729 490.437 117.846 490.053 118.081C489.669 118.315 489.359 118.647 489.125 119.077V126.01H487.396V116.499ZM497.221 121.45C497.221 119.894 497.549 118.654 498.207 117.729C498.865 116.805 499.763 116.343 500.902 116.343C502.042 116.343 502.917 116.746 503.529 117.553V112.319H505.268V126.03H503.852L503.646 124.858C503.015 125.763 502.117 126.216 500.951 126.216C499.786 126.216 498.874 125.802 498.217 124.975C497.559 124.142 497.23 123.029 497.23 121.635L497.221 121.45ZM498.969 121.45V121.635C498.969 122.632 499.167 123.41 499.564 123.969C499.968 124.529 500.574 124.809 501.381 124.809C502.357 124.809 503.08 124.363 503.549 123.471V119.038C503.067 118.178 502.351 117.749 501.4 117.749C500.587 117.749 499.978 118.081 499.574 118.745C499.171 119.402 498.969 120.304 498.969 121.45ZM511.4 124.839C512.012 124.839 512.494 124.718 512.846 124.477C513.197 124.23 513.373 123.904 513.373 123.501C513.373 123.097 513.223 122.778 512.924 122.544C512.624 122.303 512.081 122.091 511.293 121.909C510.095 121.649 509.213 121.303 508.646 120.874C508.087 120.438 507.807 119.839 507.807 119.077C507.807 118.315 508.139 117.667 508.803 117.134C509.467 116.593 510.333 116.323 511.4 116.323C512.468 116.323 513.331 116.606 513.988 117.173C514.652 117.733 514.968 118.429 514.936 119.262L514.916 119.311H513.266C513.266 118.875 513.087 118.497 512.729 118.178C512.377 117.859 511.911 117.7 511.332 117.7C510.759 117.7 510.316 117.83 510.004 118.091C509.691 118.344 509.535 118.67 509.535 119.067C509.535 119.464 509.672 119.767 509.945 119.975C510.219 120.184 510.756 120.372 511.557 120.542C512.781 120.809 513.679 121.167 514.252 121.616C514.825 122.059 515.111 122.648 515.111 123.384C515.111 124.23 514.77 124.913 514.086 125.434C513.409 125.955 512.497 126.216 511.352 126.216C510.206 126.216 509.278 125.916 508.568 125.317C507.865 124.718 507.53 123.992 507.562 123.139L507.582 123.091H509.232C509.265 123.677 509.483 124.119 509.887 124.419C510.297 124.712 510.808 124.858 511.42 124.858L511.4 124.839Z" fill="black"/>
<line x1="144" x2="144" y2="96.0208" stroke="#2E2241" stroke-width="4"/>
<line x1="277" y1="0.010498" x2="277" y2="96.0313" stroke="#2E2241" stroke-width="4"/>
<line x1="409" y1="0.010498" x2="409" y2="96.0313" stroke="#2E2241" stroke-width="4"/>
</svg>
