<svg width="41" height="40" viewBox="0 0 41 40" fill="none" xmlns="http://www.w3.org/2000/svg">
<path d="M32.6845 5H8.3155C6.76911 5 5.5 6.25889 5.5 7.8165V32.1942C5.50281 32.9403 5.80034 33.655 6.32774 34.1826C6.85515 34.7102 7.56965 35.0079 8.3155 35.0107H32.6845C34.2309 35.0107 35.4893 33.7411 35.4893 32.1942V7.8165C35.4893 6.26956 34.2309 5 32.6845 5ZM26.1257 9.6835C26.1257 9.17141 26.5523 8.74467 27.0642 8.74467H30.8182C31.3301 8.74467 31.7567 9.17141 31.7567 9.6835V13.4282C31.7567 13.9403 31.3407 14.367 30.8182 14.367H27.0642C26.5523 14.367 26.1257 13.9403 26.1257 13.4282V9.6835ZM20.5053 14.367C21.9961 14.3671 23.4257 14.9597 24.4797 16.0143C25.5337 17.0689 26.1258 18.4991 26.1257 19.9904C26.1255 21.4817 25.5332 22.9118 24.479 23.9662C23.4248 25.0206 21.995 25.6129 20.5043 25.6127C19.0135 25.6126 17.5839 25.02 16.5299 23.9655C15.4759 22.9109 14.8838 21.4806 14.8839 19.9893C14.8841 18.4981 15.4764 17.0679 16.5306 16.0135C17.5848 14.9591 19.0146 14.3669 20.5053 14.367ZM31.7567 30.3058C31.7567 30.8179 31.3407 31.2447 30.8182 31.2447H10.1818C9.66993 31.2447 9.254 30.8286 9.254 30.3058V18.1117H11.3123C11.034 19.4741 11.062 20.8814 11.3944 22.2316C11.7268 23.5819 12.3552 24.8413 13.2341 25.9186C14.113 26.996 15.2205 27.8643 16.4762 28.4607C17.732 29.0571 19.1046 29.3667 20.4947 29.367C21.7257 29.367 22.9447 29.1244 24.0821 28.6532C25.2194 28.1819 26.2528 27.4911 27.1233 26.6203C27.9938 25.7495 28.6843 24.7158 29.1554 23.578C29.6265 22.4403 29.869 21.2208 29.869 19.9893C29.869 19.3492 29.805 18.7198 29.6877 18.1117H31.746V30.3058H31.7567Z" fill="#E53014" fill-opacity="0.8"/>
</svg>
