<svg width="100" height="100" viewBox="0 0 100 100" fill="none" xmlns="http://www.w3.org/2000/svg">
<path d="M52.1677 35.9716V36.3295H44.5303V35.9716C44.5303 35.1193 48.349 29.5625 48.349 29.5625C48.349 29.5625 52.1677 35.1193 52.1677 35.9716ZM57.5567 29.9886C56.8607 29.9545 56.2362 30.1932 55.7722 30.5852C55.7365 30.6193 55.7722 30.6705 55.8079 30.6534C56.0934 30.5682 56.4325 30.5511 56.7537 30.6364C57.4674 30.8068 58.0206 31.3693 58.1455 32.0511C58.3418 33.1591 57.4496 34.1307 56.3076 34.1307C56.1291 34.1307 55.9507 34.1136 55.7901 34.0625C55.7544 34.0625 55.7187 34.0966 55.7544 34.1307C56.1202 34.4392 56.5731 34.6379 57.0565 34.7019C57.5399 34.7658 58.0324 34.6923 58.4722 34.4904C58.9121 34.2885 59.2799 33.9672 59.5297 33.5667C59.7794 33.1662 59.9 32.7043 59.8764 32.2386C59.8229 31.0455 58.7879 30.0568 57.5388 29.9886M52.2926 43.1648C52.2926 43.1648 52.0427 41.3068 52.0427 40.6932C52.0427 39.8068 52.935 39.4659 52.935 39.4659L53.042 37.4886H51.3468L51.1684 38.733H49.6694L49.491 37.4886H47.1712L46.9928 38.733H45.4938L45.3154 37.4886H43.6202L43.7273 39.4659C43.7273 39.4659 44.6195 39.8068 44.6195 40.6932C44.6195 41.3068 44.3697 43.1648 44.3697 43.1648H52.2747H52.2926ZM38.249 41.2216V40.7102C38.249 39.2273 37.107 38.3068 35.733 38.3068C34.3589 38.3068 33.2169 39.2273 33.2169 40.7102V41.2216H38.2312H38.249ZM53.5238 44.3409H43.1562V45.8409C43.1562 45.8409 43.7986 46.1136 43.7986 46.7955C43.7986 48.1591 42.6744 53.5966 42.8886 57.517H46.4931L46.7608 53.8011C46.8857 52.8636 47.5103 52.3182 48.3133 52.3182C49.1163 52.3182 49.7408 52.8636 49.8657 53.8011L50.1334 57.517H53.738C53.9521 53.5966 52.8279 48.1591 52.8279 46.7955C52.8279 46.1136 53.4703 45.8409 53.4703 45.8409V44.3409M49.5624 27.6193C49.5624 26.9545 48.9914 26.4091 48.2954 26.4091C47.5995 26.4091 47.0285 26.9545 47.0285 27.6193C47.0285 28.2841 47.5995 28.8295 48.2954 28.8295C48.9914 28.8295 49.5624 28.2841 49.5624 27.6193ZM38.142 47.0341H38.7665V46.1477C38.7665 46.1477 37.9635 45.9943 37.9635 45.1932L37.9278 44.4261L38.6951 43.8295L38.8557 42.2443H37.7315L37.5888 43.3693H36.5003L36.3397 42.2443H35.0906L34.93 43.3693H33.8415L33.6987 42.2443H32.5745L32.7351 43.8295L33.5024 44.4261L33.4667 45.1932C33.4667 45.9943 32.6637 46.1477 32.6637 46.1477V47.0341H33.2883C33.2526 50 31.718 54.2955 31.718 57.517H39.7658C39.7658 54.2955 38.2312 50 38.1955 47.0341H38.142ZM63.4096 41.2216V40.7102C63.4096 39.2273 62.2676 38.3068 60.8936 38.3068C59.5195 38.3068 58.3775 39.2273 58.3775 40.7102V41.2216H63.3918H63.4096ZM63.3561 47.0341H63.9806V46.1477C63.9806 46.1477 63.1776 45.9943 63.1776 45.1932L63.142 44.4261L63.9093 43.8295L64.0699 42.2443H62.9457L62.8029 43.3693H61.7144L61.5538 42.2443H60.3047L60.1441 43.3693H59.0556L58.9128 42.2443H57.7886L57.9492 43.8295L58.7165 44.4261L58.6809 45.1932C58.6809 45.9943 57.8779 46.1477 57.8779 46.1477V47.0341H58.5024C58.4667 50 56.9321 54.2955 56.9321 57.517H64.9799C64.9799 54.2955 63.4453 50 63.4096 47.0341H63.3561ZM38.3382 31.3693L36.3754 30.9432L37.7494 32.358L36.3754 33.7727L38.3382 33.3466L38.945 35.1875L39.5517 33.3466L41.5145 33.7727L40.1405 32.358L41.5145 30.9432L39.5517 31.3693L38.945 29.5284L38.3382 31.3693ZM65.551 59C63.0706 59 61.7858 59.9205 60.6437 60.517C59.6266 61.0625 58.7522 61.5739 56.9143 61.5739C55.0763 61.5739 54.1841 61.0455 53.1848 60.517C52.0427 59.9205 50.7579 59.2386 48.3133 59.2216C45.8686 59.2216 44.5659 59.9205 43.4417 60.517C42.4246 61.0625 41.5502 61.5739 39.7123 61.5739C37.8743 61.5739 36.9821 61.0455 35.9828 60.517C34.8407 59.9034 33.5381 59 31.0756 59C29.5053 59 27.6495 59.4773 27.6495 59.4773L28.9878 61.7102C28.9878 61.7102 30.112 61.5227 31.0756 61.5227C32.9314 61.5227 33.9128 62.0511 34.93 62.5795C36.072 63.1932 37.0178 64.0284 39.4981 64.0284C41.9785 64.0284 43.3168 63.2614 44.4589 62.6648C45.4582 62.1364 46.511 61.6761 48.3311 61.6591C50.1512 61.6591 51.1862 62.1193 52.2033 62.6648C53.3454 63.2784 54.7016 64.0284 57.1641 64.0284C59.6266 64.0284 60.5902 63.1932 61.7323 62.5795C62.7494 62.0341 63.7487 61.5227 65.5866 61.5227C66.5502 61.5227 67.6744 61.7102 67.6744 61.7102L69.0128 59.4773C69.0128 59.4773 67.1391 59 65.5866 59H65.551ZM60.5724 65.5625C59.5909 66.0909 58.5916 66.4318 56.7894 66.4318C54.9871 66.4318 54.0056 66.0398 53.0242 65.5114C51.9178 64.9318 50.6509 64.1818 48.2954 64.1648C45.94 64.1818 44.6552 64.9148 43.5667 65.5114C42.5852 66.0398 41.6038 66.4318 39.8015 66.4318C37.9992 66.4318 36.9999 66.0909 36.0185 65.5625C34.9121 64.9659 33.4132 64.0114 30.915 64.267C34.6801 68.9034 39.855 68.8182 39.855 68.8182C42.1391 68.8182 43.4417 68.375 44.5481 67.7784C45.5295 67.267 46.5288 66.6364 48.2954 66.6193C50.062 66.6193 51.0613 67.267 52.0427 67.7784C53.1491 68.375 54.4517 68.8182 56.7358 68.8182C56.7358 68.8182 61.9107 68.8864 65.6759 64.267C63.1776 63.9943 61.6966 64.9659 60.5724 65.5625ZM48.2776 69.2614C45.8864 69.2614 44.8693 70.9659 41.7108 70.9659C42.9243 71.3068 45.5474 71.8693 48.2776 71.8693C50.9899 71.8693 53.613 71.3068 54.8443 70.9659C51.6859 70.9659 50.6687 69.2614 48.2776 69.2614ZM21.8857 68.2898L22.8493 69.483L17.728 73.25L16.7644 72.0568L21.8857 68.2898ZM25.6687 74.0852L24.2233 72.9091L25.062 71.9716L29.1662 75.3125L28.3275 76.25L26.8821 75.0739L23.5096 78.858L22.314 77.8864L25.6866 74.1023L25.6687 74.0852ZM31.8786 81.0568L31.1113 76.5568L32.753 77.4602L33.1634 80.2216L35.6794 78.7898L37.3925 79.4205L33.3061 81.6705L32.1641 83.9886L30.7722 83.3409L31.9143 81.0568H31.8786ZM55.5938 80.3239L60.2869 78.9943L60.6437 80.1705L57.4318 81.0739L57.7886 82.25L60.4653 81.5L60.8222 82.6761L58.1455 83.4432L58.895 85.8466L57.4139 86.2727L55.5759 80.3239H55.5938ZM79.3268 59.6989L80.0228 57.0227C80.451 55.3864 81.486 54.8409 82.7351 55.1307C84.127 55.4545 84.8229 56.5795 84.3768 58.25C84.2876 58.625 84.0913 59 83.9485 59.2557L86.0006 59.75L85.6259 61.1818L79.3268 59.6818V59.6989ZM82.4139 56.6136C81.8786 56.4773 81.4146 56.733 81.2362 57.3977L80.9328 58.5568L82.6994 58.983C82.86 58.7443 83.0563 58.3352 83.1277 58.0455C83.324 57.3125 83.0206 56.767 82.4139 56.6307V56.6136ZM61.1969 17.4602C60.8222 19.3864 58.9664 20.4773 56.9321 20.1023C55.8436 19.8977 54.9514 19.3523 54.4339 18.5L55.7365 17.8352C55.9685 18.2614 56.5395 18.7216 57.1641 18.8239C58.4489 19.0625 59.466 18.3977 59.7158 17.1875C59.9657 15.892 59.2519 14.9545 58.0385 14.733C57.3425 14.6136 56.6466 14.8182 56.254 15.0568L56.1113 15.8068L57.6459 16.0795L57.4139 17.2557L54.4339 16.7102L55.1477 12.9943L56.4503 13.233L56.3254 13.8295C56.9143 13.5057 57.7351 13.4034 58.5203 13.5568C60.3761 13.8977 61.5895 15.5341 61.2148 17.4602H61.1969ZM77.6316 25.1136L76.6323 23.9545L71.6894 27.9602L72.653 29.0852L74.5802 27.5341L76.4539 29.7159L74.491 31.2159L75.4724 32.358L80.5581 28.5057L79.5588 27.3466L77.4532 28.9659L75.5617 26.767L77.6316 25.1136ZM48.349 87.5C50.3118 87.5 51.9535 86.1023 51.9535 84.142C51.9535 82.1818 50.3118 80.7841 48.349 80.7841C46.3861 80.7841 44.7444 82.1818 44.7622 84.142C44.7622 86.1023 46.4039 87.5 48.3668 87.5H48.349ZM46.279 84.142C46.279 83.017 47.2248 82.1477 48.349 82.1307C49.491 82.1307 50.4367 83 50.4367 84.125C50.4367 85.25 49.491 86.1193 48.349 86.1364C47.2069 86.1364 46.279 85.267 46.279 84.142ZM79.9692 41.7841L79.4874 40.5398L82.0035 36.2273L78.3454 37.608L77.81 36.2614L83.8415 33.9943L84.3589 35.3409L84.2162 35.392C84.0021 35.4602 83.7701 35.6989 83.6095 36.0057L81.3789 39.7898L85.5367 38.3409L86.072 39.7045L79.9514 41.767L79.9692 41.7841ZM81.022 50.6477L80.7901 45.9773L82.0749 45.9261L82.2355 49.1307L83.5024 49.0795L83.3775 46.4034L84.6623 46.3523L84.7872 49.0284L86.1434 48.9602L85.9828 45.7557L87.2676 45.7045L87.4996 50.375L81.022 50.6648V50.6477ZM67.6031 17.2727L66.1577 16.5398L65.2476 23.2216L66.6216 24.0568L72.5638 20.4432L71.2968 19.5398L70.0834 20.3068L67.3532 18.6364L67.5674 17.2727H67.6031ZM68.9414 21.0568L66.7644 22.4375L67.1748 19.9659L68.9414 21.0568ZM81.9321 69.5511C82.9671 67.9489 82.5567 65.8864 80.8079 64.8636C79.0592 63.8409 76.9535 64.4375 75.9364 66.0398C74.9014 67.642 75.3118 69.7045 77.0606 70.7273C78.8093 71.75 80.915 71.1534 81.9321 69.5511ZM77.8457 69.483C76.8286 68.8864 76.5431 67.6761 77.1498 66.7386C77.7565 65.8011 79.0235 65.4943 80.0228 66.0909C81.0399 66.6875 81.3254 67.8977 80.7187 68.8352C80.1298 69.7557 78.8629 70.0795 77.8457 69.483ZM74.0449 75.6023C74.0806 76.1989 73.8129 76.8125 73.3133 77.2216C72.4389 77.9205 71.1362 77.8352 70.3689 76.9659C70.1885 76.7677 70.0513 76.5372 69.9651 76.2878C69.879 76.0383 69.8458 75.775 69.8674 75.5132C69.889 75.2514 69.965 74.9963 70.0909 74.7628C70.2169 74.5293 70.3902 74.3222 70.6009 74.1534C71.1184 73.7443 71.7786 73.608 72.3854 73.7273L72.6887 72.3295C71.6537 72.142 70.5652 72.4148 69.6909 73.1136C68.1919 74.3239 67.8886 76.4034 69.2091 77.8864C70.5295 79.3864 72.7244 79.4375 74.2233 78.2273C75.1334 77.4943 75.5974 76.4375 75.5438 75.3977L74.0627 75.5852L74.0449 75.6023ZM15.5688 66.6875C15.1429 66.5959 14.7579 66.3786 14.4686 66.0663C14.1792 65.7541 14.0001 65.3627 13.9566 64.9477C13.9132 64.5328 14.0076 64.1153 14.2265 63.7545C14.4454 63.3936 14.7777 63.1078 15.1762 62.9375C16.2469 62.4602 17.4781 62.9205 17.9421 63.9091C18.2276 64.4886 18.1919 65.1364 17.8886 65.6648L19.2269 66.3125C19.6909 65.4091 19.7087 64.3352 19.2269 63.3466C18.4061 61.642 16.3896 60.8068 14.5338 61.625C12.678 62.4432 12.0178 64.4375 12.8564 66.142C13.3561 67.1818 14.284 67.8977 15.3725 68.1023L15.5866 66.6875H15.5688ZM39.8193 19.7102L38.5167 20.1705L34.0021 17.767L35.4653 21.2614L34.0556 21.7727L31.6823 16.0114L33.092 15.5L33.1455 15.6364C33.2169 15.8409 33.4667 16.0625 33.7879 16.2159L37.7494 18.3295L36.2326 14.358L37.6602 13.8466L39.8372 19.6932L39.8193 19.7102ZM49.0984 18.6875L44.2091 18.9091L44.1377 17.6818L47.4924 17.5284L47.4389 16.3182L44.6373 16.4545L44.5659 15.2273L47.3675 15.0909L47.2961 13.7955L43.9414 13.9489L43.87 12.7216L48.7594 12.5L49.0806 18.6875H49.0984Z" fill="#E53014" fill-opacity="0.8"/>
</svg>
