<svg width="1440" height="1600" viewBox="0 0 1440 1600" fill="none" xmlns="http://www.w3.org/2000/svg">
<path d="M981.481 1512C981.481 1512 1031.81 1463.09 1040.69 1444.08C1049.58 1425.06 1070.3 1395.17 1088.06 1378.87C1105.83 1362.57 1153.2 1324.53 1156.16 1313.66C1159.12 1302.79 1239.06 1217.07 1242.02 1217.83C1244.98 1218.59 1313.07 1161.51 1313.07 1161.51C1313.07 1161.51 1339.72 1142.49 1363.4 1115.32C1387.09 1088.15 1422.61 1069.13 1443.34 1063.7C1464.06 1058.26 1469.98 1069.13 1487.75 1055.55C1505.51 1041.96 1544 998.49 1544 998.49L1481.83 952.302C1481.83 952.302 1469.98 944.151 1464.06 930.566C1458.14 916.981 1395.97 878.943 1395.97 878.943C1395.97 878.943 1354.52 849.056 1336.76 821.887C1336.76 821.887 1286.43 857.207 1262.74 877.231C1239.06 897.256 1242.02 902.581 1242.02 902.581C1242.02 902.581 1224.25 957.736 1209.45 965.887C1199.89 971.158 1118.02 1043.4 1111.75 1050.11C1093.98 1069.13 1067.34 1104.45 1049.58 1137.06C1031.81 1169.66 993.323 1204.98 981.481 1221.58C969.638 1238.18 925.229 1313.66 925.229 1321.81C925.229 1329.96 860.095 1416.91 860.095 1416.91C860.095 1416.91 892.662 1427.77 901.544 1435.92C910.425 1444.08 928.189 1454.94 940.032 1468.53C951.874 1482.11 981.481 1512 981.481 1512Z" stroke="#E53014" stroke-width="4" stroke-miterlimit="10"/>
<path d="M1147.84 1017.54C1124.72 1025.72 1088.06 998.491 1088.06 998.491C1088.06 998.491 996.284 925.132 984.441 916.982C972.599 908.831 925.229 859.925 877.859 827.321C830.489 794.717 839.37 802.868 792 781.132C744.63 759.397 697.26 721.359 685.418 718.642C673.575 715.925 661.733 767.548 558.111 903.397C454.489 1039.25 379.466 1158.79 371.088 1166.94C362.709 1175.09 445.607 1204.98 445.607 1204.98C445.607 1204.98 457.449 1207.7 472.252 1224C487.055 1240.3 525.544 1264.76 525.544 1264.76H541.798C555.15 1264.76 688.378 1278.34 688.378 1278.34C688.378 1278.34 703.181 1283.77 712.063 1294.64C720.945 1305.51 754.4 1342.79 768.315 1357.13C792 1381.59 860.095 1416.91 860.095 1416.91" stroke="#E53014" stroke-width="4" stroke-miterlimit="10"/>
<path d="M1130.46 1032.94L1170.96 1058.26L1206.64 1090.87C1168.3 1131.62 1126.55 1183.25 1120.63 1191.4C1114.71 1199.55 1082.14 1232.15 1082.14 1232.15C1082.14 1232.15 1034.77 1286.49 1017.01 1321.81C999.244 1357.13 945.153 1474.23 945.153 1474.23" stroke="#E53014" stroke-width="2" stroke-miterlimit="10"/>
<path d="M998.919 1201.2C998.919 1201.2 1064.38 1224 1082.14 1232.15C1099.91 1240.3 1157.02 1262.2 1186.18 1275.7" stroke="#E53014" stroke-width="2" stroke-miterlimit="10"/>
<path d="M1024.17 1172.76L1057.75 1201.23C1057.75 1201.23 1062.96 1207.94 1057.75 1214.63L1052.53 1221.31C1052.53 1221.31 1040.69 1237.61 1034.77 1248.48C1028.85 1259.35 1014.05 1272.93 996.283 1300.1C978.519 1327.27 960.755 1346.29 960.755 1346.29C960.755 1346.29 942.992 1368.03 928.188 1389.76C913.385 1411.5 898.582 1430.52 901.543 1435.95" stroke="#E53014" stroke-width="2" stroke-miterlimit="10"/>
<path d="M882.714 1386.2C882.714 1386.2 913.386 1387.02 928.189 1389.74C942.992 1392.45 935.443 1397.89 971.769 1416.91" stroke="#E53014" stroke-width="2" stroke-miterlimit="10"/>
<path d="M986.158 1386.2C986.158 1386.2 964.693 1371.94 946.426 1364.52" stroke="#E53014" stroke-width="2" stroke-miterlimit="10"/>
<path d="M922.534 1328.06L960.756 1346.26" stroke="#E53014" stroke-width="2" stroke-miterlimit="10"/>
<path d="M980.622 1322.22C980.622 1322.22 998.977 1333.47 1009.46 1337.14C1019.94 1340.8 1029.71 1346.24 1029.71 1346.24C1029.71 1346.24 1037.73 1354.39 1040.69 1348.95C1043.65 1343.52 1064.38 1313.63 1067.34 1308.2C1070.3 1302.77 1091.02 1278.31 1091.02 1278.31C1091.02 1278.31 1120.63 1291.9 1120.63 1294.61C1120.63 1297.33 1146.77 1258.8 1146.77 1258.8" stroke="#E53014" stroke-width="2" stroke-miterlimit="10"/>
<path d="M1013.87 1275.7C1013.87 1275.7 1030.72 1283.94 1037.17 1289.29C1043.62 1294.64 1067.31 1308.23 1067.31 1308.23C1067.31 1308.23 1100.47 1324.53 1125.34 1346.26" stroke="#E53014" stroke-miterlimit="10"/>
<path d="M1120.63 1294.64C1120.63 1294.64 1103.99 1310.37 1097.51 1325.59" stroke="#E53014" stroke-width="4" stroke-miterlimit="10"/>
<path d="M1313.07 1161.51C1289.39 1137.06 1206.64 1090.87 1206.64 1090.87C1206.64 1090.87 1259.93 994.225 1259.87 986.834C1259.81 979.444 1307.18 900.679 1316.06 881.66C1324.94 862.641 1347.71 835.96 1347.71 835.96" stroke="#E53014" stroke-width="2" stroke-miterlimit="10"/>
<path d="M1121.37 1041.09C1121.37 1041.09 1123.59 1031.09 1117.67 1022.94C1111.75 1014.79 1095.82 1003.65 1095.82 1003.65" stroke="#E53014" stroke-width="0.5" stroke-miterlimit="10"/>
<path d="M808.283 1363.92C808.283 1363.92 867.496 1247.09 905.984 1192.75C905.984 1192.75 909.478 1186.34 922.534 1188.19C935.59 1190.04 981.48 1221.58 981.48 1221.58C981.48 1221.58 1011.09 1234.87 1034.77 1248.45C1034.77 1248.45 1055.23 1254.7 1058.31 1261.09L1091.02 1278.34" stroke="#E53014" stroke-miterlimit="10"/>
<path d="M1280.21 863.266C1280.21 863.266 1303.8 888.779 1312.86 887.936" stroke="#E53014" stroke-miterlimit="10"/>
<path d="M1257.88 881.47C1257.88 881.47 1290.21 899.945 1303.12 905.76" stroke="#E53014" stroke-miterlimit="10"/>
<path d="M1242.02 908.585L1287.79 932.929" stroke="#E53014" stroke-miterlimit="10"/>
<path d="M1221.35 1063.86C1221.35 1063.86 1220.37 1095 1226.74 1102.44" stroke="#E53014" stroke-width="2" stroke-miterlimit="10"/>
<path d="M1149.5 1022.37C1149.5 1022.37 1204.12 1057.78 1218.63 1068.89" stroke="#E53014" stroke-width="2" stroke-miterlimit="10"/>
<path d="M1464.06 938.717C1464.06 938.717 1422.61 965.887 1378.21 990.34C1333.8 1014.79 1286.43 1044.68 1274.58 1052.83C1262.74 1060.98 1240.74 1073.02 1222.15 1086.03" stroke="#E53014" stroke-width="2" stroke-miterlimit="10"/>
<path d="M1262.74 987.623C1262.74 987.623 1272.24 991.97 1284.41 998.029C1297.68 1004.6 1314.11 1013.16 1324.91 1020.23" stroke="#E53014" stroke-width="2" stroke-miterlimit="10"/>
<path d="M1283.47 998.491V1045.63" stroke="#E53014" stroke-width="2" stroke-miterlimit="10"/>
<path d="M1287.79 998.49C1287.79 998.49 1295.96 987.568 1303.72 977.732C1308.78 971.293 1313.69 965.316 1316.03 963.169C1321.95 957.736 1360.44 971.32 1369.32 974.037C1378.21 976.754 1390.05 984.905 1390.05 984.905" stroke="#E53014" stroke-width="2" stroke-miterlimit="10"/>
<path d="M1354.14 1003.92L1303.72 977.732" stroke="#E53014" stroke-width="2" stroke-miterlimit="10"/>
<path d="M966.293 1242.45C971.829 1231.01 966.293 1211.53 966.293 1211.53L1034.77 1153.36" stroke="#E53014" stroke-width="2" stroke-miterlimit="10"/>
<path d="M1034.77 963.958C1034.77 963.958 916.643 1082.72 873.565 1153.36C873.565 1153.36 882.832 1170.04 922.534 1188.19C922.534 1188.19 922.268 1169.66 922.534 1161.35C922.801 1153.03 934.11 1147.92 934.11 1147.92C934.11 1147.92 999.392 1067.42 1036.34 1032.94C1073.29 998.464 1080.69 992.595 1080.69 992.595C1080.69 992.595 1105.83 965.887 1105.83 960.453C1105.83 955.019 1156.16 914.264 1159.12 903.396C1162.08 892.529 1182.8 870.793 1185.76 854.491C1188.72 838.189 1212.41 830.038 1218.33 827.321C1224.25 824.604 1304.19 762.113 1304.19 762.113" stroke="#E53014" stroke-width="2" stroke-miterlimit="10"/>
<path d="M904.504 1180.53C904.504 1180.53 898.583 1196.83 889.701 1207.7C880.819 1218.57 756.473 1142.49 756.473 1142.49C756.473 1142.49 756.473 1128.91 777.197 1104.45C777.197 1104.45 723.906 1071.85 709.102 1052.83C694.299 1033.81 617.323 960.453 617.323 960.453L558.11 903.396" stroke="#E53014" stroke-width="2" stroke-miterlimit="10"/>
<path d="M709.102 1052.83C709.102 1052.83 685.417 1080 679.496 1090.87C673.575 1101.74 673.575 1134.34 673.575 1134.34C673.575 1134.34 682.457 1143.69 706.142 1141.73C706.142 1141.73 717.984 1137.06 726.866 1112.6C735.748 1088.15 740.633 1080.05 740.633 1080.05" stroke="#E53014" stroke-width="2" stroke-miterlimit="10"/>
<path d="M581.795 878.943C581.795 878.943 638.047 941.434 691.338 987.623L731.307 950.101C731.307 950.101 735.748 946.868 735.748 955.019C735.748 955.019 756.472 984.906 765.354 990.34C774.236 995.774 780.157 995.774 780.157 995.774C780.157 995.774 845.291 1039.25 866.015 1052.83" stroke="#E53014" stroke-width="2" stroke-miterlimit="10"/>
<path d="M604 907.472L583.276 926.491" stroke="#E53014" stroke-width="0.75" stroke-miterlimit="10"/>
<path d="M648.41 950.943L628.277 970.968" stroke="#E53014" stroke-width="0.75" stroke-miterlimit="10"/>
<path d="M678.015 978.113L656.551 998.409" stroke="#E53014" stroke-width="0.75" stroke-miterlimit="10"/>
<path d="M692.819 988.981L670.673 1012.37" stroke="#E53014" stroke-width="0.75" stroke-miterlimit="10"/>
<path d="M765.355 990.34C765.355 990.34 733.232 1027.54 707.089 1050.39" stroke="#E53014" stroke-width="0.75" stroke-miterlimit="10"/>
<path d="M720.944 1062.67C720.944 1062.67 769.055 1011.94 779.032 998.409C789.009 984.878 848.251 930.566 868.976 911.547" stroke="#E53014" stroke-width="2" stroke-miterlimit="10"/>
<path d="M806.803 1017.51L794.96 1032.94L829.511 1062.67" stroke="#E53014" stroke-width="2" stroke-miterlimit="10"/>
<path d="M797.921 1036.53V1056.09" stroke="#E53014" stroke-width="2" stroke-miterlimit="10"/>
<path d="M806.803 1041.96V1074.08" stroke="#E53014" stroke-width="2" stroke-miterlimit="10"/>
<path d="M678.016 1105.92C678.016 1105.92 689.858 1103.09 698.74 1111.25C707.622 1119.4 719.524 1128.04 719.524 1128.04" stroke="#E53014" stroke-width="0.5" stroke-miterlimit="10"/>
<path d="M837.89 804.227C837.89 804.227 763.874 838.759 720.945 881.28C720.945 881.28 707.622 828.679 701.701 812.377H672.095" stroke="#E53014" stroke-miterlimit="10"/>
<path d="M651.37 774.34C651.37 774.34 663.213 773.959 672.095 783.659V851.638C672.095 851.638 688.171 854.627 711.234 844.356C734.297 834.086 805.323 790.614 805.323 790.614" stroke="#E53014" stroke-miterlimit="10"/>
<path d="M772.756 777.057L756.768 783.822L754.489 784.8L734.268 793.359L736.162 831.369" stroke="#E53014" stroke-miterlimit="10"/>
<path d="M754.993 785.207L787.56 831.396" stroke="#E53014" stroke-miterlimit="10"/>
<path d="M740.189 829.114V864.245" stroke="#E53014" stroke-miterlimit="10"/>
<path d="M873.566 829.114L867.171 1046.31C867.171 1046.31 866.016 1055.44 860.095 1067.72" stroke="#E53014" stroke-width="2" stroke-miterlimit="10"/>
<path d="M990.361 927.849C990.361 927.849 910.424 1001.21 874.897 1031.09H868.976" stroke="#E53014" stroke-width="2" stroke-miterlimit="10"/>
<path d="M868.976 1041.96H878.035L877.857 1028.38" stroke="#E53014" stroke-width="2" stroke-miterlimit="10"/>
<path d="M877.858 1041.96L928.189 1077.28" stroke="#E53014" stroke-width="2" stroke-miterlimit="10"/>
<path d="M910.425 1001.21L958.21 1041.96" stroke="#E53014" stroke-width="2" stroke-miterlimit="10"/>
<path d="M430.803 1196.83L442.646 1177.81L431.425 1170.07L418.961 1161.51L401.197 1183.25" stroke="#E53014" stroke-width="2" stroke-miterlimit="10"/>
<path d="M433.763 1169.66L451.527 1139.77C451.527 1139.77 460.409 1123.47 448.566 1112.6C436.724 1101.74 424.881 1096.3 424.881 1096.3" stroke="#E53014" stroke-width="2" stroke-miterlimit="10"/>
<path d="M487.055 1232.15V1194.11C487.055 1194.11 490.016 1191.4 501.858 1188.68C513.701 1185.96 510.74 1251.17 510.74 1251.17" stroke="#E53014" stroke-width="2" stroke-miterlimit="10"/>
<path d="M504.819 1188.68L514.293 1169.66C514.293 1169.66 561.13 1198.95 584.785 1208.76C608.441 1218.57 655.811 1248.45 655.811 1248.45C655.811 1248.45 676.535 1267.47 694.299 1278.34" stroke="#E53014" stroke-width="2" stroke-miterlimit="10"/>
<path d="M657.292 1252.53L645.449 1268.83" stroke="#E53014" stroke-width="0.75" stroke-miterlimit="10"/>
<path d="M627.685 1233.51L610.128 1268.83" stroke="#E53014" stroke-width="0.75" stroke-miterlimit="10"/>
<path d="M592.158 1211.77C592.158 1211.77 577.354 1244.38 571.433 1263.4" stroke="#E53014" stroke-width="0.75" stroke-miterlimit="10"/>
<path d="M535.905 1184.6L532.945 1260.68" stroke="#E53014" stroke-width="0.75" stroke-miterlimit="10"/>
<path d="M692.818 1282.42L642.488 1380.23" stroke="#E53014" stroke-width="0.75" stroke-miterlimit="10"/>
<path d="M726.866 1305.51C726.866 1305.51 738.709 1300.08 753.512 1286.49C768.315 1272.91 767.516 1267.47 779.773 1251.17L836.41 1281.06C836.41 1281.06 818.646 1299.64 808.284 1321.59C797.921 1343.55 791.822 1351.7 780.069 1363.92" stroke="#E53014" stroke-width="2" stroke-miterlimit="10"/>
<path d="M754.993 1287.85L808.284 1320.45" stroke="#E53014" stroke-miterlimit="10"/>
<path d="M781.638 1304.15L754.993 1339.47" stroke="#E53014" stroke-width="0.5" stroke-miterlimit="10"/>
<path d="M641.008 1275.62L605.48 1359.85" stroke="#E53014" stroke-width="4" stroke-miterlimit="10"/>
<path d="M768.315 1362.67L756.473 1392.45" stroke="#E53014" stroke-width="2" stroke-miterlimit="10"/>
<path d="M735.749 1327.25L703.182 1395.17" stroke="#E53014" stroke-width="2" stroke-miterlimit="10"/>
<path d="M719.465 1308.44L685.417 1346.26C685.417 1346.26 684.855 1348.98 679.23 1346.26C673.604 1343.55 665.344 1335.83 665.344 1335.83" stroke="#E53014" stroke-width="2" stroke-miterlimit="10"/>
<path d="M631.889 1297.25L678.016 1311.19" stroke="#E53014" stroke-width="2" stroke-miterlimit="10"/>
<path d="M532.946 1268.83L511.126 1308.44L501.326 1326.21" stroke="#E53014" stroke-width="0.75" stroke-miterlimit="10"/>
<path d="M617.501 1331.32C617.501 1331.32 562.551 1325.89 550.176 1321.81C550.176 1321.81 515.922 1312.74 511.096 1308.44" stroke="#E53014" stroke-width="0.75" stroke-miterlimit="10"/>
<path d="M571.433 1271.41C571.433 1271.41 567.407 1298.72 550.176 1321.81" stroke="#E53014" stroke-width="0.75" stroke-miterlimit="10"/>
<path d="M605.481 1273.1C605.481 1273.1 591.506 1321.87 587.391 1327.95" stroke="#E53014" stroke-width="0.75" stroke-miterlimit="10"/>
<path d="M997.349 920.758C997.349 920.758 1271.62 696.906 1271.62 688.755C1271.62 680.604 1256.82 599.094 1259.78 542.038C1262.74 484.981 1262.74 316.528 1262.74 316.528C1262.74 316.528 1067.34 373.585 1052.54 381.736C1037.73 389.887 898.582 430.641 898.582 430.641C898.582 430.641 901.543 462.729 898.582 475.2C896.658 483.269 889.819 538.152 886 579.749C883.898 602.599 882.713 621.428 883.779 626.264C885.319 633.274 883.69 686.581 881.736 736.546C879.93 783.414 877.858 827.321 877.858 827.321" stroke="#E53014" stroke-width="4" stroke-miterlimit="10"/>
<path d="M883.78 734.944C883.78 734.944 957.796 680.604 957.796 677.887C957.796 675.17 975.559 667.019 963.717 648L951.874 628.981C951.874 628.981 928.189 607.245 922.268 599.094C916.347 590.944 910.425 582.793 916.347 558.34C922.268 533.887 975.559 493.132 975.559 493.132C975.559 493.132 1019.97 525.736 1046.61 544.755C1073.26 563.774 1133.86 614.038 1133.86 614.038C1133.86 614.038 1200.57 656.151 1215.37 672.453C1230.17 688.755 1257.8 702.937 1257.8 702.937" stroke="#E53014" stroke-width="2" stroke-miterlimit="10"/>
<path d="M901.543 463.245H943.732L975.559 493.132" stroke="#E53014" stroke-miterlimit="10"/>
<path d="M805.323 560.187L834.929 584.151L886 579.749L914.096 580.157" stroke="#E53014" stroke-width="2" stroke-miterlimit="10"/>
<path d="M1110.27 825.962L948.499 686.147" stroke="#E53014" stroke-miterlimit="10"/>
<path d="M883.78 777.029C883.78 777.029 917.827 798.792 926.709 806.943C935.591 815.094 1024.74 898.343 1024.74 898.343" stroke="#E53014" stroke-miterlimit="10"/>
<path d="M908.205 793.195L971.118 741.736L1068.82 831.396C1074.74 836.83 1071.78 839.547 1071.78 839.547L1039.21 866.717L1048.09 874.868" stroke="#E53014" stroke-miterlimit="10"/>
<path d="M990.362 722.337L971.118 741.736" stroke="#E53014" stroke-miterlimit="10"/>
<path d="M994.389 763.091C994.389 763.091 948.884 800.286 934.821 814.469" stroke="#E53014" stroke-miterlimit="10"/>
<path d="M1271.62 688.755L1336.76 821.887" stroke="#E53014" stroke-width="3" stroke-miterlimit="10"/>
<path d="M1261.26 706.415H1278.05" stroke="#E53014" stroke-width="0.5" stroke-miterlimit="10"/>
<path d="M1292.79 732.036C1292.79 732.036 1232.25 775.426 1218.63 785.751C1205.01 796.075 1180.88 812.377 1172.2 821.887C1166.9 827.701 1152.93 844.791 1139.07 861.066C1130.25 871.417 1121.49 881.416 1115 887.964C1098.39 904.782 1083.59 918.367 1083.59 918.367L1108.76 943.227C1108.76 943.227 1128 929.235 1139.84 915.65C1151.69 902.065 1157.61 881.497 1157.61 881.497L1105.68 835.988" stroke="#E53014" stroke-width="0.5" stroke-miterlimit="10"/>
<path d="M1062.9 872.151L1102.98 899.919" stroke="#E53014" stroke-width="0.5" stroke-miterlimit="10"/>
<path d="M1136.91 812.377L1161.04 834.956" stroke="#E53014" stroke-width="0.5" stroke-miterlimit="10"/>
<path d="M968.157 649.359C968.157 649.359 978.52 642.186 980.74 634.904C982.961 627.623 980.74 599.719 980.74 599.719C980.74 599.719 977.039 595.019 982.961 592.302C988.882 589.585 1001.05 589.585 1002.38 576C1003.71 562.415 997.764 562.415 997.764 562.415C997.764 562.415 994.803 556.981 997.764 548.83C1000.72 540.679 1004.4 543.912 1002.56 536.848C1000.72 529.784 984.441 518.101 980.74 518.509C977.039 518.916 978.52 535.734 980.74 536.848C982.961 537.962 988.26 541.331 985.596 545.081C982.931 548.83 985.921 559.698 977.039 565.132C968.157 570.566 965.197 574.397 968.157 591.487C971.118 608.577 972.687 606.946 968.927 618.629C965.167 630.312 954.539 633.247 954.539 633.247" stroke="#E53014" stroke-width="0.5" stroke-miterlimit="10"/>
<path d="M685.417 710.491C685.417 710.491 655.811 683.321 641.008 667.019C626.205 650.717 617.323 634.415 572.913 601.811C528.504 569.208 516.662 555.623 507.78 550.189C498.898 544.755 475.213 517.585 451.528 501.283C427.843 484.981 365.669 441.509 330.142 387.17C294.614 332.83 259.087 283.925 229.48 224.151C199.874 164.377 193.953 164.377 193.953 164.377C193.953 164.377 173.228 126.34 93.2915 72C93.2915 72 105.134 110.038 105.134 129.057C105.134 148.075 102.173 156.226 105.134 175.245C108.095 194.264 116.977 191.547 119.937 235.019C122.898 278.491 125.858 354.566 116.977 422.491C108.095 490.415 158.425 585.509 158.425 585.509C158.425 585.509 167.307 596.377 161.386 620.83C161.386 620.83 223.559 658.868 250.205 645.283C250.205 645.283 253.165 707.774 226.52 751.245C226.52 751.245 216.098 771.894 221.309 813.192C221.309 813.192 235.402 827.321 427.843 781.132C427.843 781.132 520.481 857.208 555.15 908.83" stroke="#E53014" stroke-width="4" stroke-miterlimit="10"/>
<path d="M231.049 815.095L192.798 881.28C192.798 881.28 229.658 895.816 231.049 932.197C232.441 968.577 232.441 1003.92 241.323 1022.94C250.205 1041.96 291.653 1071.85 306.456 1080C321.26 1088.15 352.82 1115.32 371.087 1166.94L298.374 1263.4C298.374 1263.4 356.787 1286.49 395.275 1300.08C433.764 1313.66 492.976 1324.53 495.937 1324.53C498.897 1324.53 603.052 1363.92 603.052 1363.92C603.052 1363.92 652.85 1397.89 697.26 1397.89C741.669 1397.89 815.685 1395.17 815.685 1395.17" stroke="#E53014" stroke-width="4" stroke-miterlimit="10"/>
<path d="M463.37 819.17L324.22 1041.96L410.078 1115.32L451.527 1139.77" stroke="#E53014" stroke-width="2" stroke-miterlimit="10"/>
<path d="M491.348 993.763C491.348 993.763 419.493 916.981 407.384 908.83" stroke="#E53014" stroke-width="2" stroke-miterlimit="10"/>
<path d="M396.341 926.491C396.341 926.491 475.42 1009.36 478.292 1012.08" stroke="#E53014" stroke-width="2" stroke-miterlimit="10"/>
<path d="M427.843 778.415L312.378 669.736L294.614 686.038V807.405V938.608L315.339 1031.09L324.221 1041.96" stroke="#E53014" stroke-miterlimit="10"/>
<path d="M312.377 669.736C312.377 669.736 339.023 618.113 336.062 601.812C336.062 601.812 374.551 604.529 389.354 609.962C404.157 615.396 380.472 656.151 380.472 656.151C380.472 656.151 368.008 681.745 349.06 704.269" stroke="#E53014" stroke-width="2" stroke-miterlimit="10"/>
<path d="M389.355 942.738L416.682 971.131L418.813 973.358L467.812 1024.3" stroke="#E53014" stroke-miterlimit="10"/>
<path d="M417.48 972.679C417.48 972.679 411.559 980.151 417.48 995.42C423.401 1010.69 441.165 1056.91 441.165 1056.91" stroke="#E53014" stroke-miterlimit="10"/>
<path d="M504.257 855.061L474.74 878.943" stroke="#E53014" stroke-miterlimit="10"/>
<path d="M489.483 840.253L458.604 865.82" stroke="#E53014" stroke-miterlimit="10"/>
<path d="M431.425 870.331L515.181 953.66" stroke="#E53014" stroke-miterlimit="10"/>
<path d="M636.567 665.661C636.567 665.661 598.079 695.547 577.355 714.566L562.552 730.868L523.975 785.208L548.015 808.302L518.142 858.566" stroke="#E53014" stroke-miterlimit="10"/>
<path d="M654.33 755.321L618.803 730.868C618.803 730.868 614.451 728.151 612.201 730.868C609.951 733.585 548.014 808.302 548.014 808.302" stroke="#E53014" stroke-miterlimit="10"/>
<path d="M524.063 570.566C524.063 570.566 464.85 619.472 441.165 641.207L439.419 643.109L419.967 664.139" stroke="#E53014" stroke-miterlimit="10"/>
<path d="M438.205 643.925L417.48 622.189C417.48 622.189 415.763 623.384 419.582 617.353C423.401 611.321 441.165 597.736 441.165 597.736L461.89 581.434L500.378 548.83" stroke="#E53014" stroke-miterlimit="10"/>
<path d="M461.89 584.151L482.584 605.262" stroke="#E53014" stroke-miterlimit="10"/>
<path d="M588.605 617.352L527.794 669.735L500.379 698.101L474.888 736.329" stroke="#E53014" stroke-miterlimit="10"/>
<path d="M621.764 562.415L580.315 603.17" stroke="#E53014" stroke-miterlimit="10"/>
<path d="M577.355 560.16L601.04 580.7" stroke="#E53014" stroke-width="0.5" stroke-miterlimit="10"/>
<path d="M411.559 787.924L414.52 831.559L417.48 874.868L424.912 880.737" stroke="#E53014" stroke-width="0.5" stroke-miterlimit="10"/>
<path d="M522.583 873.51C522.583 873.51 507.78 887.095 501.237 894.403C494.694 901.712 491.348 894.403 491.348 894.403L442.853 852.046L423.432 831.396L414.609 832.239" stroke="#E53014" stroke-width="2" stroke-miterlimit="10"/>
<path d="M450.048 806.943L423.402 831.396" stroke="#E53014" stroke-width="0.5" stroke-miterlimit="10"/>
<path d="M435.244 790.641L412.862 806.943" stroke="#E53014" stroke-width="0.5" stroke-miterlimit="10"/>
<path d="M353.294 798.793L355.307 847.698H294.614" stroke="#E53014" stroke-width="0.5" stroke-miterlimit="10"/>
<path d="M328.898 802.895L331.622 931.925L367.149 934.642L376.623 953.66" stroke="#E53014" stroke-width="0.5" stroke-miterlimit="10"/>
<path d="M294.614 902.798H331" stroke="#E53014" stroke-width="0.5" stroke-miterlimit="10"/>
<path d="M294.614 936.761L331.622 931.925" stroke="#E53014" stroke-width="0.5" stroke-miterlimit="10"/>
<path d="M344.946 932.93L343.465 980.831L358.446 987.161C358.446 987.161 361.999 985.178 370.496 989.797L402.678 1073.21C402.678 1073.21 408.599 1078.64 405.639 1089.51C402.678 1100.38 393.796 1102.52 393.796 1102.52" stroke="#E53014" stroke-miterlimit="10"/>
<path d="M304.384 982.243L322.74 983.548L321.704 932.93" stroke="#E53014" stroke-miterlimit="10"/>
<path d="M343.465 980.83L322.74 983.547" stroke="#E53014" stroke-miterlimit="10"/>
<path d="M382.131 1019.95L402.678 1016.15C402.678 1016.15 414.52 1040.6 420.441 1059.62C426.363 1078.64 428.021 1080.24 428.021 1080.24" stroke="#E53014" stroke-width="0.5" stroke-miterlimit="10"/>
<path d="M402.677 1073.21L422.365 1065.63" stroke="#E53014" stroke-width="0.5" stroke-miterlimit="10"/>
<path d="M283.246 1060.66L315.339 1031.09C284.253 994.415 233.034 979.472 233.034 979.472" stroke="#E53014" stroke-width="0.5" stroke-miterlimit="10"/>
<path d="M294.614 766.243H271.61V708.67H243.514C243.514 708.67 202.154 699.107 174.975 683.756C171.097 681.555 167.485 679.245 164.346 676.827C139.181 657.482 40 605.235 40 605.235" stroke="#E53014" stroke-width="0.5" stroke-miterlimit="10"/>
<path d="M296.095 747.17H317.026H337.988V801.102" stroke="#E53014" stroke-width="0.5" stroke-miterlimit="10"/>
<path d="M318.862 802.895L317.027 747.17" stroke="#E53014" stroke-width="0.5" stroke-miterlimit="10"/>
<path d="M368.452 722.527L337.987 747.17" stroke="#E53014" stroke-width="0.5" stroke-miterlimit="10"/>
<path d="M478.321 739.779L458.751 757.277L488.476 790.641L511.953 774.339" stroke="#E53014" stroke-miterlimit="10"/>
<path d="M468.581 813.192L488.477 790.641" stroke="#E53014" stroke-width="0.5" stroke-miterlimit="10"/>
<path d="M570.93 780.643L621.764 811.372" stroke="#E53014" stroke-width="0.5" stroke-miterlimit="10"/>
<path d="M586.236 760.755L636.567 783.55" stroke="#E53014" stroke-width="0.5" stroke-miterlimit="10"/>
<path d="M598.079 747.17L647.61 768.987" stroke="#E53014" stroke-width="0.5" stroke-miterlimit="10"/>
<path d="M454.192 629.579C454.192 629.579 516.691 657.509 527.764 669.736C538.836 681.962 577.324 714.566 577.324 714.566" stroke="#E53014" stroke-width="0.5" stroke-miterlimit="10"/>
<path d="M604 633.057L548.014 687.478" stroke="#E53014" stroke-width="0.5" stroke-miterlimit="10"/>
<path d="M505.412 654.793L475.865 687.478C475.865 687.478 458.9 706.415 452.979 714.566L523.945 785.208" stroke="#E53014" stroke-width="0.5" stroke-miterlimit="10"/>
<path d="M478.529 640.99L450.047 676.854" stroke="#E53014" stroke-width="0.5" stroke-miterlimit="10"/>
<path d="M324.842 646.994C324.842 646.994 340.326 648.326 360.547 651.287C367.297 652.265 374.551 653.434 381.952 654.792C381.952 654.792 408.598 657.509 429.322 668.377C450.047 679.245 473.732 684.679 506.299 700.981C538.866 717.283 562.551 730.868 562.551 730.868" stroke="#E53014" stroke-miterlimit="10"/>
<path d="M334.642 690.684C334.642 690.684 364.041 662.427 364.13 651.804" stroke="#E53014" stroke-miterlimit="10"/>
<path d="M418.25 891.415L504.256 975.886" stroke="#E53014" stroke-width="0.5" stroke-miterlimit="10"/>
<path d="M317.737 368.369C317.737 368.369 297.575 389.887 291.654 406.189C285.733 422.491 276.851 536.604 276.851 536.604C276.851 536.604 276.851 626.264 250.205 645.283" stroke="#E53014" stroke-width="4" stroke-miterlimit="10"/>
<path d="M59.836 615.858L42.457 645.283L139.181 749.887L174.945 683.755" stroke="#E53014" stroke-width="0.5" stroke-miterlimit="10"/>
<path d="M216.158 779.773L162.866 777.056L139.181 749.887" stroke="#E53014" stroke-width="0.5" stroke-miterlimit="10"/>
<path d="M227.941 651.804L206.979 697.829" stroke="#E53014" stroke-width="0.5" stroke-miterlimit="10"/>
<path d="M772.756 548.83C772.756 548.83 713.543 326.038 704.662 304.302C695.78 282.566 671.858 260.966 671.858 260.966L570.959 365.162L654.36 454.47L772.786 548.83L641.038 667.019" stroke="#E53014" stroke-miterlimit="10"/>
<path d="M531.465 520.302L544.759 507.695" stroke="#E53014" stroke-width="2" stroke-miterlimit="10"/>
<path d="M477.137 478.542L531.464 520.302" stroke="#E53014" stroke-width="2" stroke-miterlimit="10"/>
<path d="M490.016 463.245L570.93 365.162" stroke="#E53014" stroke-miterlimit="10"/>
<path d="M710.167 408.063L734.888 499.435L731.572 516.009" stroke="#E53014" stroke-width="3" stroke-miterlimit="10"/>
<path d="M601.04 508.075L619.662 520.302L618.803 537.962L678.016 543.396L669.134 641.208" stroke="#E53014" stroke-width="3" stroke-miterlimit="10"/>
<path d="M692.048 424.447C692.048 424.447 698.739 423.849 701.7 440.151C704.661 456.453 704.661 475.472 704.661 475.472C704.661 475.472 718.132 472.728 727.665 472.755" stroke="#E53014" stroke-miterlimit="10"/>
<path d="M730.863 484.546L704.662 475.472C704.662 475.472 697.231 474.602 692.05 484.546C692.05 484.546 675.056 491.774 675.056 502.642C675.056 513.509 678.016 543.396 678.016 543.396" stroke="#E53014" stroke-width="3" stroke-miterlimit="10"/>
<path d="M149.543 1215.85C149.543 1215.85 164.997 1154.72 192.798 1106.49C220.598 1058.26 229.48 1052.83 229.48 1052.83C229.48 1052.83 240.464 1041.96 252.721 1041.96" stroke="#E53014" stroke-width="2" stroke-miterlimit="10"/>
<path d="M133.585 983.547C133.585 983.547 202.834 1012.08 214.677 1022.94C226.519 1033.81 225.364 1056.91 225.364 1056.91" stroke="#E53014" stroke-width="2" stroke-miterlimit="10"/>
<path d="M552.189 161.66L671.858 260.966L812.724 172.528C812.724 172.528 922.268 406.188 895.622 430.641C895.622 430.641 857.134 465.962 842.331 487.698C827.528 509.434 818.646 533.886 797.921 563.773C777.197 593.66 682.457 721.358 682.457 721.358" stroke="#E53014" stroke-width="4" stroke-miterlimit="10"/>
<path d="M867.496 301.585C867.496 301.585 842.508 290.717 828.357 298.868C814.205 307.019 729.412 388.746 729.412 388.746L654.331 454.469C654.331 454.469 617.323 494.572 601.039 507.423C584.756 520.275 584.756 512.124 566.992 531.142L507.779 468.652L490.016 463.218C490.016 463.218 483.917 469.63 477.137 478.515C471.452 486.013 465.265 495.251 461.89 503.945" stroke="#E53014" stroke-width="3" stroke-miterlimit="10"/>
<path d="M743.15 437.434C743.15 437.434 787.559 440.151 817.166 426.566C817.166 426.566 799.402 404.83 796.441 385.811C793.481 366.792 790.52 336.906 790.52 336.906" stroke="#E53014" stroke-width="0.5" stroke-miterlimit="10"/>
<path d="M763.874 358.641C763.874 358.641 775.717 415.698 790.52 434.717" stroke="#E53014" stroke-width="0.5" stroke-miterlimit="10"/>
<path d="M731.308 228.227C731.308 228.227 793.481 222.711 829.008 214.642" stroke="#E53014" stroke-miterlimit="10"/>
<path d="M122.897 407.547H294.614" stroke="#E53014" stroke-width="0.5" stroke-miterlimit="10"/>
<path d="M116.976 442.868L241.471 441.51L284.252 453.736" stroke="#E53014" stroke-width="0.5" stroke-miterlimit="10"/>
<path d="M121.417 478.189L278.331 537.962" stroke="#E53014" stroke-width="0.5" stroke-miterlimit="10"/>
<path d="M162.866 589.585L191.11 582.793L269.448 605.887" stroke="#E53014" stroke-width="0.5" stroke-miterlimit="10"/>
<path d="M239.843 520.302V596.377" stroke="#E53014" stroke-miterlimit="10"/>
<path d="M239.843 523.019V497.262L199.874 476.558L195.433 442.868" stroke="#E53014" stroke-miterlimit="10"/>
<path d="M156.945 442.868C156.945 442.868 159.906 464.604 159.906 475.472C159.906 486.34 151.024 489.057 151.024 489.057" stroke="#E53014" stroke-miterlimit="10"/>
<path d="M122.897 305.66C122.897 305.66 199.874 310.469 239.842 295.825C279.811 281.18 386.394 240.453 401.197 207.849" stroke="#E53014" stroke-width="2" stroke-miterlimit="10"/>
<path d="M1185.76 340.981L1244.98 384.453H1259.78" stroke="#E53014" stroke-width="2" stroke-miterlimit="10"/>
<path d="M1203.53 357.283L1191.69 370.868L1259.78 422.491" stroke="#E53014" stroke-width="2" stroke-miterlimit="10"/>
<path d="M1151.72 353.207L1157.64 372.226L1133.95 391.245L1104.35 366.792" stroke="#E53014" stroke-miterlimit="10"/>
<path d="M1148.76 380.377L1163.56 393.962L1136.91 421.132L1083.62 374.943" stroke="#E53014" stroke-miterlimit="10"/>
<path d="M1139.87 385.812L1157.64 399.396" stroke="#E53014" stroke-width="0.5" stroke-miterlimit="10"/>
<path d="M1222.77 366.792L1243.5 345.057L1242.02 325.956" stroke="#E53014" stroke-width="0.5" stroke-miterlimit="10"/>
<path d="M1258.3 345.057H1243.5" stroke="#E53014" stroke-width="0.5" stroke-miterlimit="10"/>
<path d="M1221.29 332.776L1219.81 339.623L1203.76 355.055" stroke="#E53014" stroke-width="0.5" stroke-miterlimit="10"/>
</svg>
