<?xml version="1.0" encoding="UTF-8"?><svg id="Layer_1" xmlns="http://www.w3.org/2000/svg" width="513.62mm" height="457.1mm" viewBox="0 0 1455.94 1295.73"><defs><style>.cls-1{stroke-width:2px;}.cls-1,.cls-2,.cls-3,.cls-4,.cls-5,.cls-6{fill:none;stroke:#e53014;stroke-miterlimit:10;}.cls-2{stroke-width:.5px;}.cls-3{stroke-width:.75px;}.cls-4{stroke-width:4px;}.cls-5{stroke-width:3px;}</style></defs><path class="cls-4" d="M909.68,1292.79s48.62-51.49,57.21-71.51c8.58-20.02,28.6-51.49,45.76-68.65,17.16-17.16,62.93-57.21,65.79-68.65,2.86-11.44,80.09-101.68,82.95-100.88,2.86.8,68.64-59.3,68.64-59.3,0,0,25.74-20.02,48.63-48.63,22.88-28.6,57.2-48.62,77.22-54.34,20.02-5.72,25.74,5.72,42.91-8.58,17.16-14.31,54.34-60.07,54.34-60.07l-60.07-48.63s-11.44-8.58-17.16-22.88-65.78-54.35-65.78-54.35c0,0-40.05-31.46-57.21-60.07,0,0-48.62,37.18-71.5,58.27s-20.02,26.69-20.02,26.69c0,0-17.17,58.07-31.47,66.65-9.24,5.55-88.32,81.61-94.38,88.68-17.17,20.02-42.91,57.2-60.07,91.53-17.16,34.32-54.34,71.51-65.79,88.98-11.44,17.48-54.34,96.94-54.34,105.52s-62.93,100.12-62.93,100.12c0,0,31.46,11.44,40.04,20.02,8.58,8.58,25.74,20.02,37.18,34.32,11.44,14.31,40.04,45.77,40.04,45.77Z"/><path class="cls-4" d="M1070.39,772.23c-22.34,8.61-57.75-20.05-57.75-20.05,0,0-88.66-77.23-100.11-85.81-11.44-8.58-57.2-60.07-102.97-94.39-45.76-34.33-37.18-25.74-82.95-48.63s-91.53-62.93-102.97-65.79c-11.44-2.86-22.88,51.49-122.99,194.51-100.11,143.02-172.59,268.88-180.68,277.45-8.09,8.58,71.99,40.05,71.99,40.05,0,0,11.44,2.86,25.74,20.02,14.3,17.16,51.48,42.91,51.48,42.91h15.7c12.9,0,141.61,14.3,141.61,14.3,0,0,14.3,5.72,22.88,17.16,8.58,11.44,40.9,50.69,54.34,65.79,22.88,25.74,88.67,62.93,88.67,62.93"/><path class="cls-1" d="M1053.6,788.45l39.13,26.66,34.47,34.32c-37.04,42.91-77.37,97.25-83.09,105.84-5.72,8.58-37.19,42.9-37.19,42.9,0,0-45.76,57.21-62.92,94.39-17.16,37.19-69.42,160.47-69.42,160.47"/><path class="cls-1" d="M926.53,965.59s63.24,24,80.4,32.58c17.16,8.58,72.34,31.64,100.51,45.85"/><path class="cls-1" d="M950.92,935.64l32.43,29.98s5.03,7.07,0,14.1l-5.03,7.04s-11.44,17.16-17.16,28.6c-5.72,11.44-20.02,25.75-37.18,54.35-17.16,28.6-34.32,48.63-34.32,48.63,0,0-17.16,22.88-31.46,45.76-14.3,22.88-28.6,42.91-25.74,48.63"/><path class="cls-1" d="M814.26,1160.35s29.63.86,43.93,3.72c14.3,2.86,7.01,8.58,42.1,28.61"/><path class="cls-1" d="M914.2,1160.35s-20.74-15.01-38.38-22.82"/><path class="cls-1" d="M852.73,1099.14l36.93,19.17"/><path class="cls-1" d="M908.85,1092.99s17.73,11.84,27.86,15.71c10.12,3.86,19.56,9.58,19.56,9.58,0,0,7.75,8.58,10.61,2.86,2.86-5.72,22.88-37.19,25.74-42.91,2.86-5.72,22.88-31.46,22.88-31.46,0,0,28.61,14.3,28.61,17.16s25.25-37.7,25.25-37.7"/><path class="cls-6" d="M940.97,1044.02s16.27,8.67,22.51,14.3c6.23,5.64,29.12,19.94,29.12,19.94,0,0,32.04,17.16,56.06,40.05"/><path class="cls-4" d="M1044.11,1063.96s-16.08,16.56-22.34,32.58"/><path class="cls-1" d="M1230.02,923.8c-22.88-25.74-102.82-74.37-102.82-74.37,0,0,51.48-101.74,51.42-109.52-.05-7.78,45.71-90.7,54.29-110.72,8.58-20.02,30.58-48.11,30.58-48.11"/><path class="cls-2" d="M1044.82,797.03s2.15-10.53-3.57-19.11c-5.72-8.58-21.11-20.31-21.11-20.31"/><path class="cls-6" d="M742.36,1136.9s57.2-123,94.39-180.2c0,0,3.38-6.75,15.99-4.81,12.61,1.95,56.95,35.15,56.95,35.15,0,0,28.6,13.99,51.48,28.29,0,0,19.76,6.58,22.74,13.3l31.6,18.17"/><path class="cls-6" d="M1198.27,609.82s22.8,26.86,31.55,25.97"/><path class="cls-6" d="M1176.71,628.98s31.23,19.45,43.7,25.57"/><path class="cls-6" d="M1161.38,657.53l44.22,25.63"/><path class="cls-1" d="M1141.41,821s-.94,32.78,5.21,40.62"/><path class="cls-1" d="M1071.99,777.32s52.77,37.27,66.79,48.97"/><path class="cls-1" d="M1375.89,689.25s-40.04,28.6-82.94,54.35c-42.91,25.74-88.67,57.21-100.11,65.79-11.44,8.58-32.69,21.25-50.66,34.95"/><path class="cls-1" d="M1181.4,740.74s9.18,4.58,20.93,10.95c12.82,6.92,28.69,15.93,39.13,23.37"/><path class="cls-1" d="M1201.42,752.18v49.63"/><path class="cls-1" d="M1205.6,752.18s7.89-11.5,15.38-21.85c4.89-6.78,9.64-13.07,11.9-15.33,5.72-5.72,42.91,8.58,51.49,11.44,8.58,2.86,20.02,11.44,20.02,11.44"/><path class="cls-1" d="M1269.69,757.9l-48.71-27.57"/><path class="cls-1" d="M895.01,1009.01c5.35-12.04,0-32.55,0-32.55l66.16-61.24"/><path class="cls-1" d="M961.16,715.82s-114.12,125.03-155.74,199.4c0,0,8.95,17.56,47.31,36.67,0,0-.26-19.51,0-28.26.26-8.75,11.18-14.13,11.18-14.13,0,0,63.07-84.75,98.76-121.05,35.69-36.3,42.84-42.48,42.84-42.48,0,0,24.29-28.12,24.29-33.84s48.62-48.63,51.48-60.07c2.86-11.44,22.88-34.33,25.74-51.49,2.86-17.16,25.74-25.74,31.46-28.6s82.95-68.65,82.95-68.65"/><path class="cls-1" d="M835.31,943.82s-5.72,17.17-14.3,28.61c-8.58,11.44-128.71-68.65-128.71-68.65,0,0,0-14.3,20.02-40.05,0,0-51.48-34.32-65.78-54.34-14.3-20.03-88.67-97.26-88.67-97.26l-57.2-60.07"/><path class="cls-1" d="M646.54,809.39s-22.88,28.6-28.6,40.04c-5.72,11.44-5.72,45.77-5.72,45.77,0,0,8.58,9.84,31.46,7.78,0,0,11.44-4.92,20.02-30.67,8.58-25.74,13.3-34.26,13.3-34.26"/><path class="cls-1" d="M523.55,626.32s54.35,65.79,105.83,114.42l38.61-39.5s4.29-3.4,4.29,5.18c0,0,20.02,31.46,28.6,37.18,8.58,5.72,14.3,5.72,14.3,5.72,0,0,62.92,45.76,82.95,60.07"/><path class="cls-3" d="M545,656.35l-20.02,20.02"/><path class="cls-3" d="M587.9,702.12l-19.45,21.08"/><path class="cls-3" d="M616.51,730.72l-20.74,21.37"/><path class="cls-3" d="M630.81,742.17l-21.39,24.63"/><path class="cls-3" d="M700.88,743.6s-31.03,39.16-56.29,63.21"/><path class="cls-1" d="M657.98,819.74s46.48-53.4,56.12-67.65c9.64-14.24,66.87-71.42,86.89-91.45"/><path class="cls-1" d="M740.93,772.2l-11.44,16.25,33.38,31.29"/><path class="cls-1" d="M732.35,792.22v20.6"/><path class="cls-1" d="M740.93,797.94v33.81"/><path class="cls-2" d="M616.51,865.28s11.44-2.98,20.02,5.6c8.58,8.59,20.08,17.68,20.08,17.68"/><path class="cls-6" d="M770.96,547.66s-71.51,36.35-112.98,81.12c0,0-12.87-55.38-18.59-72.54h-28.6"/><path class="cls-6" d="M590.76,516.2s11.44-.4,20.02,9.81v71.57s15.53,3.15,37.81-7.67c22.28-10.81,90.9-56.58,90.9-56.58"/><path class="cls-6" d="M708.03,519.06l-15.45,7.12-2.2,1.03-19.53,9.01,1.83,40.02"/><path class="cls-6" d="M690.87,527.64l31.46,48.63"/><path class="cls-6" d="M676.57,573.86v36.98"/><path class="cls-1" d="M805.42,573.86l-6.18,228.66s-1.11,9.61-6.84,22.54"/><path class="cls-1" d="M918.26,677.81s-77.23,77.23-111.55,108.69h-5.72"/><path class="cls-1" d="M800.99,797.94h8.75l-.17-14.3"/><path class="cls-1" d="M809.57,797.94l48.62,37.19"/><path class="cls-1" d="M841.03,755.04l46.16,42.9"/><path class="cls-1" d="M377.68,960.99l11.44-20.03-10.84-8.15-12.04-9.01-17.16,22.88"/><path class="cls-1" d="M380.54,932.38l17.16-31.46s8.58-17.16-2.86-28.61c-11.44-11.44-22.88-17.16-22.88-17.16"/><path class="cls-1" d="M432.02,998.17v-40.04s2.86-2.86,14.3-5.72c11.44-2.86,8.58,65.78,8.58,65.78"/><path class="cls-1" d="M449.18,952.41l9.15-20.03s45.25,30.84,68.1,41.16c22.85,10.33,68.62,41.79,68.62,41.79,0,0,20.02,20.03,37.18,31.47"/><path class="cls-3" d="M596.48,1019.62l-11.44,17.17"/><path class="cls-3" d="M567.88,999.6l-16.96,37.19"/><path class="cls-3" d="M533.56,976.72s-14.3,34.32-20.02,54.35"/><path class="cls-3" d="M479.21,948.11l-2.86,80.1"/><path class="cls-3" d="M630.81,1051.09l-48.62,102.97"/><path class="cls-1" d="M663.7,1075.4s11.44-5.72,25.74-20.02c14.3-14.3,13.53-20.02,25.37-37.19l54.72,31.47s-17.16,19.56-27.17,42.67c-10.01,23.12-15.9,31.7-27.26,44.57"/><path class="cls-6" d="M690.87,1056.81l51.48,34.32"/><path class="cls-2" d="M716.61,1073.97l-25.74,37.19"/><path class="cls-4" d="M580.75,1043.94l-34.32,88.67"/><path class="cls-1" d="M703.74,1135.58l-11.44,31.35"/><path class="cls-1" d="M672.28,1098.28l-31.46,71.51"/><path class="cls-1" d="M656.55,1078.49l-32.89,39.82s-.54,2.86-5.98,0c-5.43-2.86-13.42-10.99-13.42-10.99"/><path class="cls-1" d="M571.94,1066.71l44.56,14.67"/><path class="cls-3" d="M476.35,1036.79l-21.08,41.7-9.47,18.71"/><path class="cls-3" d="M558.04,1102.58s-53.09-5.73-65.04-10.02c0,0-33.09-9.55-37.76-14.07"/><path class="cls-3" d="M513.54,1039.5s-3.89,28.75-20.54,53.06"/><path class="cls-3" d="M546.43,1041.28s-13.5,51.34-17.48,57.75"/><path class="cls-4" d="M925.01,670.34s264.97-235.67,264.97-244.25-14.3-94.39-11.44-154.46c2.86-60.07,2.86-237.41,2.86-237.41,0,0-188.78,60.07-203.08,68.65-14.3,8.58-148.73,51.49-148.73,51.49,0,0,2.86,33.78,0,46.91-1.86,8.49-8.47,66.27-12.16,110.07-2.03,24.06-3.17,43.88-2.15,48.97,1.49,7.38-.09,63.5-1.97,116.1-1.74,49.34-3.75,95.57-3.75,95.57"/><path class="cls-1" d="M815.29,474.72s71.51-57.21,71.51-60.07,17.16-11.44,5.72-31.46l-11.44-20.02s-22.88-22.88-28.6-31.46c-5.72-8.58-11.44-17.16-5.72-42.91,5.72-25.74,57.21-68.65,57.21-68.65,0,0,42.9,34.32,68.64,54.35,25.74,20.02,84.29,72.94,84.29,72.94,0,0,64.44,44.34,78.74,61.5,14.31,17.16,40.99,32.09,40.99,32.09"/><path class="cls-6" d="M832.45,188.68h40.76l30.75,31.46"/><path class="cls-1" d="M739.5,290.74l28.6,25.23,49.34-4.63,27.14.43"/><path class="cls-6" d="M1034.09,570.54l-156.28-147.2"/><path class="cls-6" d="M815.29,519.03s32.89,22.91,41.47,31.49,94.7,96.22,94.7,96.22"/><path class="cls-6" d="M838.89,536.05l60.78-54.18,94.39,94.39c5.72,5.72,2.86,8.58,2.86,8.58l-31.46,28.6,8.58,8.58"/><path class="cls-6" d="M918.26,461.45l-18.59,20.42"/><path class="cls-6" d="M922.15,504.35s-43.96,39.16-57.55,54.09"/><path class="cls-5" d="M1189.98,426.09l62.92,140.16"/><path class="cls-2" d="M1179.97,444.69h16.22"/><path class="cls-2" d="M1210.43,471.66s-58.49,45.68-71.65,56.55c-13.16,10.87-36.47,28.03-44.85,38.04-5.12,6.12-18.62,24.11-32,41.25-8.53,10.9-16.99,21.42-23.26,28.32-16.04,17.71-30.35,32.01-30.35,32.01l24.32,26.17s18.59-14.73,30.03-29.03c11.44-14.3,17.16-35.96,17.16-35.96l-50.17-47.91"/><path class="cls-2" d="M988.34,619.17l38.73,29.23"/><path class="cls-2" d="M1059.84,556.24l23.31,23.77"/><path class="cls-2" d="M896.81,384.62s10.01-7.55,12.16-15.22c2.14-7.67,0-37.04,0-37.04,0,0-3.58-4.95,2.14-7.81,5.72-2.86,17.48-2.86,18.76-17.16s-4.46-14.3-4.46-14.3c0,0-2.86-5.72,0-14.3,2.86-8.58,6.41-5.18,4.63-12.61-1.77-7.44-17.51-19.74-21.08-19.31-3.58.43-2.15,18.14,0,19.31,2.14,1.17,7.26,4.72,4.69,8.67-2.58,3.95.31,15.39-8.27,21.11-8.58,5.72-11.44,9.75-8.58,27.74,2.86,17.99,4.38,16.28.74,28.58-3.63,12.3-13.9,15.39-13.9,15.39"/><path class="cls-4" d="M80.94,6.24c1.19,49.55-1.81,99.55-7.81,149.55-4,40,8,78,22,115,6,16,14,31,21,47,5,11,5,24,1,36,16,12,35,21,54,28,10,4,22,2,32.08-1.46-.26.78-.85,1.18-1.67,1.13.43-.54,1.01-.93,1.67-1.13-.8,2.4.81,5.41-1.08,7.46-.14-2.52-.7-5.35,1.08-7.46.13,5.39.97,10.87,0,16.23,1.01-5.61-2.69-10.6,0-16.23.1,1.56.36,3.39-.04,4.9-.59-1.39-.54-3.48.04-4.9,1.92,40.46-5.08,80.46-25.08,115.46-4,20-8,40-3,60,8,5,19,5,28,4s18-3,28-4c13-2,24-5,37-8,36-7,68-15,104-24,2,0,4,1,6,2,1,2,2,4,4,5,46,38,83,80,115.68,127"/><path class="cls-4" d="M623.66,448.98c-20.53-14.19-34.53-37.19-51.53-56.19-8-16-22-28-35-41-44-38-86-71-126-113-7-6-14-12-22-18-29-22-55-42-79-69-14-17-26-33-38-52-15-24-26-47-42-71-3-5-4-11-6.71-15.54"/><path class="cls-4" d="M184.7,559.1l-36.96,69.68s35.61,15.3,36.96,53.6c1.34,38.3,1.34,75.51,9.93,95.53,8.58,20.02,48.62,51.49,62.93,60.07,14.3,8.58,44.79,37.18,62.44,91.53l-70.25,101.55s56.43,24.31,93.62,38.61c37.18,14.3,94.39,25.74,97.25,25.74s103.48,41.48,103.48,41.48c0,0,48.11,35.75,91.01,35.75s114.41-2.86,114.41-2.86"/><path class="cls-1" d="M409.14,563.39l-134.43,234.55,82.95,77.23,40.04,25.75"/><path class="cls-1" d="M436.17,747.2s-69.42-80.83-81.12-89.42"/><path class="cls-1" d="M344.38,676.38s76.4,87.24,79.17,90.1"/><path class="cls-6" d="M374.82,520.49l-111.55-114.41-17.16,17.16v265.9l20.02,97.36,8.58,11.44"/><path class="cls-1" d="M263.27,406.07s25.74-54.35,22.88-71.51c0,0,37.18,2.86,51.48,8.58s-8.58,48.63-8.58,48.63c0,0-12.04,26.95-30.35,50.66"/><path class="cls-6" d="M337.63,693.48l26.4,29.89,2.06,2.34,47.34,53.63"/><path class="cls-6" d="M364.8,725s-5.72,7.87,0,23.94c5.72,16.08,22.88,64.73,22.88,64.73"/><path class="cls-6" d="M448.64,601.18l-28.52,25.14"/><path class="cls-6" d="M434.37,585.59l-29.83,26.92"/><path class="cls-6" d="M378.28,617.25l80.92,87.73"/><path class="cls-6" d="M576.46,401.78s-37.18,31.46-57.21,51.49l-14.3,17.16-37.27,57.21,23.23,24.31-28.86,52.92"/><path class="cls-6" d="M593.62,496.17l-34.32-25.74s-4.2-2.86-6.38,0c-2.17,2.86-62.01,81.52-62.01,81.52"/><path class="cls-6" d="M467.77,301.67s-57.2,51.49-80.09,74.37l-1.69,2-18.79,22.14"/><path class="cls-6" d="M384.83,378.9l-20.02-22.88s-1.66,1.26,2.03-5.09c3.69-6.35,20.85-20.65,20.85-20.65l20.02-17.16,37.18-34.32"/><path class="cls-6" d="M407.71,315.97l19.99,22.22"/><path class="cls-6" d="M530.13,350.92l-58.75,55.15-26.49,29.86-24.63,40.25"/><path class="cls-6" d="M562.16,293.09l-40.04,42.91"/><path class="cls-2" d="M519.26,290.71l22.88,21.62"/><path class="cls-2" d="M359.08,530.5l2.86,45.94,2.86,45.6,7.18,6.18"/><path class="cls-1" d="M466.34,620.6s-14.3,14.3-20.62,22c-6.32,7.69-9.55,0-9.55,0l-46.85-44.59-18.76-21.74-8.52.89"/><path class="cls-2" d="M396.27,550.52l-25.74,25.74"/><path class="cls-2" d="M381.97,533.36l-21.62,17.16"/><path class="cls-2" d="M302.79,541.94l1.94,51.49h-58.63"/><path class="cls-2" d="M279.23,546.26l2.63,135.84,34.32,2.86,9.15,20.02"/><path class="cls-2" d="M246.1,651.43h35.15"/><path class="cls-2" d="M246.1,687.19l35.75-5.09"/><path class="cls-6" d="M294.73,683.16l-1.43,50.43,14.47,6.66s3.43-2.09,11.64,2.78l31.09,87.81s5.72,5.72,2.86,17.16c-2.86,11.44-11.44,13.7-11.44,13.7"/><path class="cls-6" d="M255.54,735.07l17.73,1.37-1-53.29"/><path class="cls-6" d="M293.3,733.58l-20.02,2.86"/><path class="cls-2" d="M330.65,774.78l19.85-4.01s11.44,25.74,17.16,45.77c5.72,20.02,7.32,21.71,7.32,21.71"/><path class="cls-2" d="M350.5,830.84l19.02-7.98"/><path class="cls-2" d="M235.12,817.62l31.01-31.12c-30.03-38.61-79.52-54.34-79.52-54.34"/><path class="cls-2" d="M246.1,507.67h-22.22v-60.61h-27.14s-39.96-10.07-66.22-26.23c-3.75-2.32-7.24-4.75-10.27-7.29C95.94,393.17.12,338.17.12,338.17"/><path class="cls-2" d="M247.53,487.59h40.47v56.78"/><path class="cls-2" d="M269.53,546.26l-1.77-58.67"/><path class="cls-2" d="M317.44,461.65l-29.43,25.94"/><path class="cls-6" d="M423.58,479.81l-18.91,18.42,28.72,35.13,22.68-17.16"/><path class="cls-2" d="M414.17,557.1l19.22-23.74"/><path class="cls-2" d="M513.05,522.83l49.11,32.35"/><path class="cls-2" d="M527.84,501.89l48.62,24"/><path class="cls-2" d="M539.28,487.59l47.85,22.97"/><path class="cls-2" d="M400.27,363.8s60.38,29.4,71.08,42.28,47.88,47.2,47.88,47.2"/><path class="cls-2" d="M545,367.46l-54.09,57.29"/><path class="cls-2" d="M449.75,390.34l-28.54,34.41s-16.39,19.94-22.11,28.52l68.56,74.37"/><path class="cls-2" d="M423.78,375.81l-27.51,37.76"/><path class="cls-6" d="M275.31,382.13s14.96,1.4,34.49,4.52c6.52,1.03,13.53,2.26,20.68,3.69,0,0,25.74,2.86,45.76,14.3,20.02,11.44,42.9,17.16,74.37,34.32s54.34,31.46,54.34,31.46"/><path class="cls-6" d="M284.78,428.12s28.4-29.75,28.49-40.93"/><path class="cls-2" d="M365.55,639.45l83.09,88.93"/><path class="cls-4" d="M268.44,88.8s-19.48,22.65-25.2,39.82c-5.72,17.16-14.3,137.3-14.3,137.3,0,0,0,94.39-25.74,114.41"/><path class="cls-2" d="M19.29,349.35l-16.79,30.98,93.44,110.12,34.55-69.62"/><path class="cls-2" d="M170.31,521.92l-51.48-2.86-22.88-28.6"/><path class="cls-2" d="M181.69,387.19l-20.25,48.46"/><path class="cls-6" d="M581.63,8.28c-22.51,24.51-45.51,51.51-68.51,76.51,26,32,53,62,80,95,4,4,8,7,13,10,5,4,9,8,14,12,1,1,2,3,3,4,9,7,17,14,26,21,1,1,2,3,3,4,16,14,31,26,46,40,3,3,7,5,9.94,8-4.22,4.13-.35-.31,0,0-27.94,27-54.94,54-82.94,82-15,14-29,28-44.34,42.42"/><path class="cls-6" d="M708.03,278.78c-5.91-24-11.91-46-16.91-71,0-1-2-3-2-4-2-8-3-16-5-24-4-10-5-21-8-32,0-1-2-3-2-4-4-17-7-32-12-48-2-6-2-13-4-19-4-10-5-20-9-30-1-4-2-9-3-14-3-10-6-19-11.59-26.84"/><path class="cls-1" d="M474.92,248.75l12.84-13.27"/><path class="cls-1" d="M422.44,204.79l52.49,43.96"/><path class="cls-6" d="M434.88,188.68l78.17-103.26"/><path class="cls-5" d="M647.57,130.59l23.88,96.19-3.2,17.45"/><path class="cls-5" d="M542.14,235.88l17.99,12.87-.83,18.59,57.2,5.72-8.58,102.97"/><path class="cls-6" d="M630.06,147.84s6.47-.63,9.33,16.53c2.86,17.16,2.86,37.18,2.86,37.18,0,0,13.01-2.89,22.22-2.86"/><path class="cls-5" d="M667.56,211.11l-25.31-9.55s-7.18-.91-12.18,9.55c0,0-16.42,7.61-16.42,19.05s2.86,42.91,2.86,42.91"/><path class="cls-1" d="M105.95,981.01s14.93-64.36,41.79-115.13c26.86-50.77,35.44-56.49,35.44-56.49,0,0,10.61-11.45,22.45-11.45"/><path class="cls-1" d="M90.54,736.45s66.9,30.03,78.34,41.47c11.44,11.44,10.32,35.76,10.32,35.76"/><path class="cls-4" d="M793.84.65c15.28,44.13,31.28,87.13,37.28,134.13,1,10-2,19-9,26-20,17-37,35-49,58-20,36-34,71-58,105-32,44-57,85-90,129-2,3-3,5-4.33,7.63"/><path class="cls-5" d="M799.56,18.49s-24.14-11.44-37.81-2.86c-13.67,8.58-95.59,94.62-95.59,94.62l-72.53,69.19s-35.75,42.22-51.48,55.75c-15.73,13.53-15.73,4.95-32.89,24.97l-57.21-65.79-17.16-5.72s-5.89,6.75-12.44,16.1c-5.49,7.89-11.47,17.62-14.73,26.77"/><path class="cls-2" d="M679.43,161.51s42.9,2.86,71.51-11.44c0,0-17.16-22.88-20.02-42.9-2.86-20.02-5.72-51.49-5.72-51.49"/><path class="cls-2" d="M699.45,78.56s11.44,60.07,25.74,80.09"/><path class="cls-2" d="M80.21,130.05h165.89"/><path class="cls-2" d="M74.49,167.23l120.27-1.43,41.33,12.87"/><path class="cls-2" d="M78.78,204.41l151.59,62.93"/><path class="cls-2" d="M118.82,321.69l27.29-7.15,75.68,24.31"/><path class="cls-6" d="M193.19,248.75v80.09"/><path class="cls-6" d="M193.19,251.61v-27.12l-38.61-21.8-4.29-35.47"/><path class="cls-6" d="M113.1,167.23s2.86,22.88,2.86,34.32-8.58,14.3-8.58,14.3"/><path class="cls-1" d="M80.21,22.78c38.91,3.01,79.91,2.01,116.98-12.01"/><path class="cls-1" d="M1107.03,59.97l57.21,45.77h14.3"/><path class="cls-1" d="M1124.19,77.13l-11.44,14.3,65.79,54.35"/><path class="cls-6" d="M1074.14,72.84l5.72,20.02-22.88,20.02-28.61-25.74"/><path class="cls-6" d="M1071.28,101.44l14.3,14.3-25.74,28.6-51.49-48.63"/><path class="cls-2" d="M1062.7,107.16l17.16,14.3"/><path class="cls-2" d="M1142.78,87.14l20.03-22.88-1.43-20.11"/><path class="cls-2" d="M1177.11,64.26h-14.3"/><path class="cls-2" d="M1141.35,51.33l-1.43,7.21-15.5,16.25"/></svg>