<svg width="100" height="100" viewBox="0 0 100 100" fill="none" xmlns="http://www.w3.org/2000/svg">
<path d="M25.8175 43.8637C26.3571 42.6819 26.9603 41.5455 27.6587 40.4546C30.4206 36.1364 34.3889 32.6819 39.1032 30.4698C39.8651 30.1213 40.373 29.4243 40.5317 28.591C40.6746 27.7425 40.4206 26.8637 39.8492 26.3183C38.9762 25.4698 38.5 24.3334 38.5 23.1061C38.5 21.8789 38.9921 20.7425 39.881 19.894C42.0397 17.8183 45.6429 16.6667 50.0238 16.6667C54.4048 16.6667 58.0238 17.8183 60.1667 19.894C61.0397 20.7425 61.5317 21.8789 61.5476 23.1061C61.5476 24.3334 61.0714 25.4698 60.1984 26.3031C59.627 26.8486 59.3571 27.7274 59.5159 28.5758C59.6587 29.4243 60.1825 30.1061 60.9444 30.4546C65.6746 32.6667 69.627 36.1213 72.3889 40.4395C73.0873 41.5304 73.7063 42.6668 74.2302 43.8486H72.1191C71.7064 43.0152 71.246 42.1971 70.7381 41.4092C68.1942 37.4025 64.4971 34.1784 60.0873 32.1213C58.7698 31.5001 57.8651 30.3183 57.6111 28.8789C57.3571 27.4243 57.8175 25.9849 58.8333 25.0001C59.3413 24.5001 59.627 23.8334 59.627 23.1061C59.627 22.3637 59.3413 21.6819 58.8175 21.1819C57.0238 19.4546 53.9127 18.5001 50.0397 18.5001C46.1667 18.5001 43.0556 19.4546 41.2619 21.1819C40.7381 21.6819 40.4524 22.3637 40.4524 23.1061C40.4524 23.8334 40.7381 24.5152 41.246 25.0001C42.2619 25.9849 42.7222 27.4243 42.4683 28.8789C42.2143 30.3183 41.3095 31.5001 39.9921 32.1213C35.5856 34.183 31.8897 37.406 29.3413 41.4092C28.8333 42.1971 28.373 43.0152 27.9603 43.8486H25.8492L25.8175 43.8637ZM72.8175 65.8031C72.2619 67.1668 71.5952 68.4849 70.8016 69.7425C68.119 74.091 64.3095 77.4546 59.7857 79.4698C56.7698 80.8183 53.5635 81.5001 50.246 81.5001H50.0397C46.119 81.4698 42.1667 80.4546 38.6429 78.5758C35.0538 76.6629 32.008 73.9428 29.7698 70.6516C28.7381 69.1365 27.881 67.5152 27.1825 65.8031H25.119C25.8968 67.8486 26.8968 69.8183 28.1508 71.6516C33.0714 78.8789 41.3889 83.2577 50.0238 83.3334H50.246C53.7222 83.3334 57.246 82.6364 60.6111 81.1364C67.4206 78.1061 72.3571 72.4092 74.881 65.8031H72.8175ZM63.9603 62.0304V60.4395L65.4048 59.9092V49.5758L64.0714 49.0455V47.4546H70.5635C73.1825 47.4546 75.4524 48.2728 75.4524 51.6213C75.4524 54.9698 73.1508 55.6516 73.1508 55.6516L75.4206 59.8183L76.8333 60.4698V62.0455H72.8968L70.0556 56.3183H68.6746V59.9395L70.0079 60.4698V62.0607H63.9762L63.9603 62.0304ZM84.8175 47.9243C84.8175 47.9243 83.881 47.2274 82.1984 47.2274C77.8333 47.2274 76.9762 49.3486 76.9762 54.7728C76.9762 60.1971 77.4365 62.2425 82.7222 62.2425C85.7698 62.2425 87.5 61.288 87.5 61.288V54.394H82.8016V55.9849L84.2937 56.5152V59.8789C84.2937 59.8789 83.8968 60.1364 82.8651 60.1364C80.7857 60.1364 80.627 58.7122 80.627 54.6061C80.627 50.788 80.627 49.394 82.7222 49.394C83.8175 49.394 84.119 49.6364 84.119 49.6364L85.1667 52.3637H87.1825V47.3334H85.119L84.8333 47.9395L84.8175 47.9243ZM69.5952 54.3031C71.246 54.3031 71.8968 53.7122 71.8968 51.8637C71.8968 50.0152 71.3254 49.4395 69.8016 49.4395H68.6587V54.3031H69.5952ZM44.4841 60.0304C46.1825 60.0304 47.246 59.7577 47.246 57.9698C47.246 56.1819 46.4365 55.6516 44.7381 55.6516H43.6905V60.0455H44.4683L44.4841 60.0304ZM43.7063 53.6516H44.7222C46.0873 53.6516 46.8651 53.2274 46.8651 51.591C46.8651 49.8183 46.0873 49.4395 44.9127 49.4395H43.7063V53.6516ZM50.2619 51.2274C50.2619 54.1516 47.4683 54.4698 47.4683 54.4698C47.4683 54.4698 50.8016 54.6213 50.8016 57.8334C50.8016 60.8031 49.2143 62.0152 44.7698 62.0152H39.0079V60.4243L40.4365 59.894V49.5607L39.1032 49.0304V47.4395H45.2143C48.2619 47.4395 50.246 48.1819 50.246 51.2274M29.754 58.1061C29.754 59.5455 30.4365 60.1213 31.7698 60.1213C33.1032 60.1213 33.7857 59.5758 33.7857 58.0758V49.5607L32.4524 49.0304V47.4395H38.3254V49.0304L36.9921 49.5607V58.0758C36.9921 60.894 35.373 62.2425 31.7381 62.2425C28.1032 62.2425 26.4365 61.1516 26.4365 58.3031V49.5607L25.1032 49.0304V47.4395H31.0873V49.0304L29.754 49.5607V58.1061ZM15.1667 60.4243V62.0152H21.7222V60.4243L20.0714 59.894V49.4849H21.5L22.6746 52.4243H24.373V47.4395H12.5V52.4243H14.1984L15.373 49.4849H16.8016V59.894L15.1508 60.4243H15.1667ZM57.6111 60.1516C59.7222 60.1516 59.7222 58.788 59.7222 54.788C59.7222 50.788 59.6905 49.3031 57.5476 49.3031C55.4048 49.3031 55.4365 50.6516 55.4365 54.6364C55.4365 58.6213 55.4683 60.1516 57.6111 60.1516ZM57.6111 47.2122C62.9444 47.2122 63.3571 49.4546 63.3571 54.6668C63.3571 59.8789 62.8968 62.2425 57.5635 62.2425C52.2302 62.2425 51.8175 59.9698 51.8175 54.7728C51.8175 49.5758 52.2937 47.2274 57.6111 47.2274" fill="#E53014" fill-opacity="0.8"/>
</svg>
